<svg width="19" height="24" viewBox="0 0 19 24" fill="none" xmlns="http://www.w3.org/2000/svg">
<path d="M17 10.4998C17.8284 10.4998 18.5 11.1713 18.5 11.9998C18.5 12.8282 17.8284 13.4998 17 13.4998L17 10.4998ZM0.93934 13.0604C0.353554 12.4746 0.353554 11.5249 0.939339 10.9391L10.4853 1.39316C11.0711 0.807369 12.0208 0.807369 12.6066 1.39315C13.1924 1.97894 13.1924 2.92869 12.6066 3.51448L4.12132 11.9998L12.6066 20.485C13.1924 21.0708 13.1924 22.0206 12.6066 22.6064C12.0208 23.1921 11.0711 23.1921 10.4853 22.6064L0.93934 13.0604ZM17 13.4998L2 13.4998L2 10.4998L17 10.4998L17 13.4998Z" fill="white"/>
</svg>
