<svg height="70" viewBox="0 0 22 30" fill="none" xmlns="http://www.w3.org/2000/svg">
    <path
      d="M9.77005 0.162053C9.13413 0.37573 8.63334 0.717613 8.1882 1.24753C7.49664 2.0595 7.32176 2.92276 7.53639 4.48687C7.73511 5.92278 7.58408 6.54671 6.92431 6.99971C6.39968 7.35869 5.97839 7.50399 5.12785 7.6151C3.99909 7.7604 3.64139 7.98262 3.28369 8.73477C3.02137 9.28178 3.04522 9.35015 3.32343 8.87152C3.5778 8.44416 3.94345 8.10228 4.38859 7.9057C4.99271 7.64074 5.23913 7.78604 5.23913 8.43562L5.24708 8.76041L5.4617 8.29032C5.70812 7.7604 6.02608 7.50399 6.24865 7.65783C6.44738 7.79459 6.42353 8.05955 6.21686 8.16211C6.11352 8.20485 6.03403 8.27322 6.03403 8.30741C6.03403 8.42707 6.2407 8.37579 6.63815 8.16211L7.02765 7.95698L6.80508 8.16211C6.58251 8.37579 6.05788 8.57237 5.93864 8.49545C5.90685 8.46981 5.87505 8.49545 5.87505 8.54673C5.87505 8.72622 6.39173 8.97408 6.78918 8.98263C7.14689 8.98263 7.16278 8.99118 6.98791 9.07665C6.87662 9.12793 6.662 9.19631 6.51097 9.2305L6.23275 9.29887L6.53481 9.30742C6.93226 9.31597 6.90842 9.45272 6.49507 9.53819L6.15326 9.60657L6.6302 9.70058C7.0356 9.78605 7.07534 9.8117 6.91637 9.86298C6.81303 9.90571 6.58251 9.93135 6.39968 9.93135H6.07377L6.39173 10.0937C6.6302 10.222 6.82098 10.2561 7.17073 10.222C7.41715 10.2049 7.62382 10.2049 7.62382 10.2305C7.62382 10.2476 7.46484 10.3416 7.26612 10.4356C7.0674 10.5296 6.90842 10.6322 6.90842 10.6579C6.90842 10.6835 7.17073 10.692 7.48869 10.6664C8.45847 10.598 9.39644 10.0254 9.92108 9.17921C10.0562 8.95699 10.1675 8.82024 10.1675 8.88007C10.1675 9.07665 9.91313 9.51255 9.53953 9.9399L9.17387 10.3673L9.49978 10.1878C9.91313 9.96554 10.2629 9.53819 10.5649 8.88861C10.7001 8.60656 10.8432 8.37579 10.8829 8.37579C10.9783 8.37579 11.1055 8.6322 11.2724 9.17067L11.4075 9.60657L11.5188 9.20485C11.5745 8.98263 11.654 8.7775 11.6937 8.75186C11.797 8.68348 12.2501 9.01682 12.4806 9.33306C12.7271 9.67494 13.0132 10.2561 13.1643 10.7262L13.2676 11.0681L13.2278 10.5895C13.1802 10.0168 13.0371 9.61511 12.6635 9.04246C12.1865 8.29032 12.3694 7.77749 13.1722 7.60655C13.8161 7.46125 14.4997 7.05099 14.7858 6.63219C15.4536 5.64927 15.3661 4.09371 14.5712 3.08515C14.4043 2.87147 14.3566 2.71763 14.3725 2.52104C14.4361 1.70907 13.4822 0.674878 12.2422 0.204789C11.5745 -0.0516234 10.4378 -0.0687175 9.77005 0.162053ZM13.9194 4.84585C13.832 5.02534 13.665 5.26465 13.5458 5.38431C13.2914 5.63218 13.1086 6.05098 13.1086 6.38432C13.1086 6.80313 12.9337 7.05099 12.6794 7.02535C12.5124 6.99971 12.4488 7.0339 12.4171 7.1792C12.3773 7.3245 12.3217 7.35869 12.1547 7.33305C11.9719 7.29886 11.9481 7.3245 11.9799 7.49544C12.0037 7.6151 11.9719 7.69202 11.9163 7.69202C11.8606 7.69202 11.7334 7.78604 11.6301 7.9057C11.4552 8.11083 11.4234 8.11938 11.2247 7.99972C10.7319 7.73476 10.549 7.29031 10.7875 6.96552L10.9385 6.76039L11.026 6.96552C11.1293 7.20484 11.328 7.26467 11.2406 7.02535C10.9862 6.36723 10.9783 5.64073 11.2247 5.33303C11.3916 5.1279 11.4711 5.10226 12.2819 5.04243C12.7589 5.00824 13.2437 4.93987 13.355 4.88858C13.6332 4.76892 13.983 4.30738 13.9989 4.03388C14.0068 3.90567 14.0227 3.9655 14.0386 4.16208C14.0625 4.4014 14.0227 4.62362 13.9194 4.84585Z"
      fill="#FFFF54" />
    <path
      d="M17.9176 7.79471L17.5996 8.16223L17.9414 7.82035C18.2514 7.51265 18.315 7.43573 18.2514 7.43573C18.2355 7.43573 18.0845 7.59812 17.9176 7.79471Z"
      fill="#FFFF54" />
    <path
      d="M21.3278 7.88018C21.6775 8.40156 21.8047 8.80327 21.7967 9.45284C21.7888 10.393 21.2721 11.3161 20.5408 11.6751C19.4518 12.2221 18.0528 11.6323 17.5122 10.3845C17.2738 9.83746 17.2579 9.08532 17.4805 8.56395C17.5599 8.36737 17.6156 8.20497 17.5917 8.20497C17.5679 8.20497 17.4725 8.38446 17.3771 8.60669C17.2499 8.92293 17.2102 9.17934 17.2102 9.70071C17.2102 10.2905 17.2499 10.4699 17.4725 10.9999C17.6633 11.4443 17.7189 11.6751 17.6871 11.8546C17.6156 12.1879 17.0989 12.7093 15.9542 13.6238C15.0958 14.3076 14.1419 15.299 14.1419 15.4956C14.1419 15.5469 14.4757 15.2392 14.8811 14.8204C15.2786 14.3931 15.9463 13.8119 16.3517 13.5127C16.7571 13.2136 17.1069 12.94 17.1227 12.8973C17.1784 12.8118 17.6394 12.9742 17.7905 13.1195C17.8779 13.2136 17.8064 13.3845 17.3056 14.1623C16.9797 14.6666 16.5584 15.376 16.3676 15.7264C15.5171 17.3076 14.8334 17.9486 14.0068 17.9486C13.4026 17.9486 12.87 17.4102 12.87 16.8119C12.87 16.6751 12.7667 16.4358 12.6316 16.2563C12.2103 15.6922 12.0275 14.2563 12.2421 13.2563C12.2977 12.9742 12.2898 12.8546 12.2182 12.752C12.1546 12.6665 12.1149 12.3588 12.1149 11.8631V11.1024L11.9559 11.3076C11.8685 11.4187 11.7572 11.5896 11.7095 11.6751C11.63 11.8118 11.6062 11.7435 11.5585 11.2819C11.479 10.5554 11.3915 10.3845 11.3279 10.8204C11.1928 11.6409 10.5331 12.4529 9.82559 12.658C9.3725 12.7862 8.95121 12.7093 8.29939 12.3759C7.57603 12.0084 7.19448 12.0084 6.55062 12.3845C6.16112 12.6153 6.01009 12.658 5.72392 12.6238C5.11185 12.5554 4.69851 12.0768 4.61107 11.3588L4.55542 10.8973L4.33285 11.2734C4.02284 11.7947 3.88771 12.2563 3.88771 12.7947C3.88771 13.3845 3.5618 14.5725 3.2041 15.2734C2.94973 15.7948 2.94178 15.8119 3.11666 15.7862C3.28359 15.7691 3.29154 15.8033 3.31538 16.3503C3.33923 16.9572 3.29154 17.1367 2.58408 19.1452L2.29792 19.9572L2.33766 19.3162C2.36946 18.8632 2.35356 18.7264 2.29792 18.8461C2.20253 19.0598 1.90047 20.7692 1.90047 21.1025C1.90047 21.4016 1.70969 21.5042 1.47917 21.3418C1.32019 21.2307 1.31224 21.1538 1.33609 19.6068C1.35994 17.6409 1.45533 16.564 1.65405 15.9144C1.86072 15.2734 1.80508 15.2392 1.58251 15.8717C1.24865 16.8204 1.17711 17.4016 1.13737 19.5726C1.08172 21.8803 1.08172 21.8803 0.4935 22.7606C-0.213959 23.8034 -0.158316 25.1367 0.64453 26.1025C1.12147 26.6923 1.6461 26.9572 2.33766 26.9572C2.64767 26.9658 3.00537 26.9401 3.13256 26.8974L3.37103 26.829L3.35513 27.5384C3.34718 28.2051 3.34718 28.2137 3.41077 27.7778C3.49821 27.094 3.60155 26.8803 4.07849 26.3419C4.70645 25.6239 4.85749 25.2478 4.92108 24.2307C4.96082 23.5641 5.01646 23.2649 5.18339 22.8717C5.30263 22.5982 5.38212 22.3504 5.36622 22.3333C5.35032 22.3162 5.22314 22.5128 5.08006 22.7692C4.78594 23.3247 4.7144 23.3931 4.64286 23.1709C4.49978 22.6923 3.86386 22.0256 3.37103 21.8546C3.21205 21.8034 3.21205 21.8034 3.36308 21.9059C4.53953 22.7008 4.96877 24.1453 4.40439 25.3418C4.13413 25.906 3.60155 26.4102 3.09281 26.5726C2.01175 26.9231 0.938642 26.4273 0.406061 25.3418C0.231184 24.9829 0.199388 24.8034 0.191439 24.2307C0.191439 23.4444 0.358367 22.9658 0.843254 22.4358C1.15326 22.094 1.82098 21.7093 2.12304 21.7093C2.28202 21.7093 2.29792 21.6666 2.29792 21.2991C2.29792 20.735 2.55228 19.7948 2.98153 18.7948C3.48231 17.6153 3.50616 17.5384 3.56975 16.2392C3.6095 15.4358 3.68899 14.8717 3.82412 14.376L4.01489 13.6666L4.16592 13.8546C4.25336 13.9572 4.46004 14.1281 4.61902 14.2392C4.92108 14.4443 5.19929 14.9315 5.39802 15.5982C5.5411 16.0768 5.867 16.752 5.94649 16.752C5.98624 16.752 5.93855 16.5896 5.83521 16.3845C5.28673 15.3076 5.66033 14.9315 7.00371 15.2307C7.43295 15.3247 7.48065 15.3247 7.67937 15.1452C8.54581 14.3931 9.08634 14.2563 9.61097 14.6324C10.072 14.9743 10.223 15.3161 10.4456 16.6067C10.4854 16.8033 10.6046 16.8973 11.2644 17.2478C11.8923 17.5726 12.0593 17.7093 12.1864 17.9572C12.3216 18.2221 12.3295 18.2991 12.2421 18.5127C12.0513 19.017 10.541 20.0683 9.41225 20.4786C8.90351 20.6666 8.6253 20.7179 8.02118 20.7179C7.35346 20.7264 7.21833 20.7008 6.82088 20.4871C6.3042 20.2136 6.11342 19.8974 6.11342 19.2991C6.11342 18.9657 6.23266 18.376 6.38369 17.9059C6.43933 17.752 6.43138 17.752 6.2883 17.9315C5.9147 18.376 5.58084 20.0939 5.67623 21.0341L5.73187 21.5213L5.93855 21.4016C6.24856 21.2307 6.47113 21.2563 6.74139 21.4957C7.07525 21.8034 7.17064 22.1794 7.10704 22.9743L7.0514 23.6324L7.32167 23.0769C7.59988 22.4786 7.82245 22.3247 8.204 22.4273C8.49811 22.5042 8.94326 23.0085 8.9989 23.3333C9.14993 24.1453 7.63963 27.2307 6.06573 29.3248C5.78751 29.6923 5.57289 30 5.59674 30C5.69213 30 6.93217 28.8632 7.4727 28.2735C8.50606 27.1538 9.58712 25.5213 10.1038 24.2906C10.223 24 10.3582 23.7606 10.4059 23.7606C10.5251 23.7606 10.6284 24.0256 10.8749 25.0085C11.1928 26.2735 11.3279 26.6752 11.6777 27.4872C11.94 28.1026 12.7429 29.4872 12.8303 29.4872C12.8462 29.4872 12.7349 29.2479 12.5759 28.9573C11.781 27.5043 11.4154 26.3589 11.312 24.9914C11.2326 23.9059 11.5028 22.2649 11.7651 22.2649C11.8208 22.2649 11.9321 22.47 12.0116 22.735L12.1467 23.2051V22.5128C12.1626 21.2478 12.5123 20.5384 13.3072 20.2136C13.8239 19.9914 14.0544 20.1623 14.3724 20.9743C14.8175 22.1281 14.9447 22.8717 14.9924 24.6153C15.0322 26.1282 15.0163 26.3931 14.7381 28.9316C14.7063 29.1795 14.7619 29.0684 14.9447 28.5214C15.0799 28.1026 15.1991 27.7778 15.215 27.7949C15.2309 27.812 15.1911 28.2051 15.1355 28.6752C15.0799 29.1453 15.0401 29.5385 15.0481 29.5556C15.064 29.5641 15.1514 29.2991 15.2388 28.9573C15.533 27.8889 15.6522 26.8034 15.6522 25.2564C15.6442 22.3333 15.1594 20.0427 14.3247 19.0512C14.1657 18.8632 14.0544 18.7008 14.0703 18.6922C14.0862 18.6751 14.2691 18.564 14.4757 18.4358C15.3899 17.8717 16.2245 16.8033 17.3215 14.7948C17.703 14.0939 18.0846 13.4956 18.2277 13.3759C18.6172 13.0683 19.2213 12.7691 19.7777 12.6153C20.2149 12.4956 20.3659 12.393 20.9383 11.8375C21.7093 11.0853 21.9398 10.6152 21.9955 9.74345C22.0352 9.03404 21.8126 8.36737 21.3675 7.846L21.0495 7.47847L21.3278 7.88018ZM20.3421 12.1794C20.199 12.3332 19.7062 12.4529 19.7062 12.3332C19.7062 12.2819 19.8572 12.205 20.048 12.1623C20.2308 12.111 20.3977 12.0682 20.4216 12.0597C20.4375 12.0597 20.4057 12.111 20.3421 12.1794ZM11.63 14.6751C11.7095 14.8546 11.8605 15.2478 11.9559 15.5555C12.0513 15.8631 12.2262 16.3931 12.3375 16.7264C12.4488 17.0683 12.5282 17.3503 12.5123 17.3503C12.4329 17.3503 11.312 16.5469 11.2246 16.4273C11.169 16.3503 11.1213 16.1025 11.1213 15.8717C11.1213 15.4529 11.3518 14.3589 11.4392 14.3589C11.471 14.3589 11.5505 14.5042 11.63 14.6751Z"
      fill="#FFFF54" />
    <path
      d="M20.4693 8.13678C20.986 8.62396 21.2006 9.49577 20.9701 10.1453C20.7793 10.6924 20.1037 11.1966 19.5472 11.1966C18.8954 11.1966 18.1721 10.5641 17.9892 9.85474C17.9336 9.61542 17.8859 9.52995 17.8859 9.64961C17.87 10.265 18.3152 11.0257 18.8636 11.2907C19.5949 11.6496 20.6124 11.359 21.0417 10.6667C21.3596 10.1453 21.3835 9.38465 21.0973 8.76072C20.9701 8.46157 20.7793 8.20516 20.5965 8.07695C20.1911 7.7778 20.1196 7.81199 20.4693 8.13678Z"
      fill="#FFFF54" />
    <path
      d="M20.0004 8.81203C20.3661 9.24793 20.382 9.70093 20.0481 10.1026C19.7381 10.4702 19.0465 10.3334 18.7922 9.84623L18.665 9.61546L18.7127 9.87187C18.8319 10.5471 19.6745 10.8377 20.1753 10.3761C20.7079 9.89751 20.6125 9.05135 19.9845 8.70092C19.8335 8.61545 19.8335 8.624 20.0004 8.81203Z"
      fill="#FFFF54" />
    <path
      d="M2.05147 12.0257C1.92428 12.4616 1.86864 15.2138 1.99582 15.2138C2.05941 15.2138 2.06736 14.8804 2.04352 14.1027C2.01172 13.3932 2.03557 12.7693 2.09916 12.3761C2.21044 11.6667 2.19455 11.5385 2.05147 12.0257Z"
      fill="#FFFF54" />
    <path
      d="M13.792 12.8546C13.9033 13.1366 14.0623 13.6495 14.1418 14.0084L14.3007 14.658L14.261 14.1452C14.2053 13.4871 14.0384 12.9315 13.7841 12.6067L13.5853 12.3503L13.792 12.8546Z"
      fill="#FFFF54" />
    <path
      d="M7.78285 16.8547C7.78285 16.8888 7.87029 17.1367 7.98157 17.4017C8.22799 18.0085 8.22799 18.0683 7.96567 18.1795L7.7431 18.2735L7.99747 18.282C8.28363 18.2906 8.34722 18.3675 8.42671 18.8034L8.48236 19.1025L8.49031 18.7778C8.49826 18.3589 8.60954 18.1538 8.9116 17.9487L9.15802 17.7948L8.84006 17.8376C8.51415 17.8803 8.49826 17.8718 7.90208 16.9658C7.83849 16.8718 7.78285 16.8205 7.78285 16.8547Z"
      fill="#FFFF54" />
    <path
      d="M2.84656 22.5983C4.1184 23.0513 4.35687 24.7692 3.27581 25.5898C2.67169 26.0428 1.78935 25.9658 1.32831 25.4103C1.04215 25.0769 0.843424 24.4445 0.883168 24C0.907015 23.7521 0.899066 23.6239 0.859322 23.6923C0.819577 23.7521 0.787781 24.0342 0.787781 24.3163C0.787781 25.5385 1.82115 26.453 2.86246 26.1539C3.65736 25.9316 4.20584 25.2051 4.20584 24.3761C4.20584 23.5043 3.54607 22.6496 2.77502 22.5214C2.52861 22.4786 2.53655 22.4872 2.84656 22.5983Z"
      fill="#FFFF54" />
    <path
      d="M2.83832 23.5724C3.25167 23.9912 3.15628 24.6579 2.6396 24.9485C2.18651 25.1964 1.68572 24.8972 1.58239 24.3075L1.51879 23.9741L1.51084 24.3331C1.5029 24.5981 1.55059 24.7519 1.70162 24.9485C2.30574 25.7177 3.33116 25.316 3.33116 24.316C3.33116 23.9058 3.18013 23.6408 2.83037 23.4442L2.57601 23.3075L2.83832 23.5724Z"
      fill="#FFFF54" />
    <path
      d="M12.3216 24.9574C12.3137 25.5642 12.4409 26.2138 12.7111 26.8719C12.9258 27.4104 12.9814 27.3506 12.8145 26.7523C12.7429 26.4959 12.6078 25.8634 12.5045 25.342L12.3216 24.4018V24.9574Z"
      fill="#FFFF54" />
    <path
      d="M6.47902 26.4869C6.26439 27.1963 6.10541 27.7946 6.12926 27.8203C6.2485 27.9485 6.97185 25.5468 6.89236 25.2903C6.87646 25.2391 6.68569 25.7775 6.47902 26.4869Z"
      fill="#FFFF54" />
  </svg>