<svg  width ="10" height="14" viewBox="0 0 10 14" fill="none"
            xmlns="http://www.w3.org/2000/svg">
            <path
              d="M4.44095 0.0756354C4.15189 0.175352 3.92426 0.334897 3.72193 0.582192C3.40758 0.961112 3.32809 1.36396 3.42565 2.09388C3.51598 2.76397 3.44732 3.05514 3.14743 3.26654C2.90896 3.43406 2.71747 3.50187 2.33086 3.55372C1.81779 3.62153 1.65519 3.72523 1.4926 4.07623C1.37337 4.33151 1.38421 4.36342 1.51067 4.14005C1.62629 3.94062 1.79249 3.78108 1.99483 3.68934C2.26943 3.56569 2.38144 3.6335 2.38144 3.93663L2.38505 4.0882L2.48261 3.86883C2.59462 3.62153 2.73914 3.50187 2.84031 3.57367C2.93064 3.63748 2.9198 3.76113 2.82586 3.809C2.77889 3.82894 2.74276 3.86085 2.74276 3.8768C2.74276 3.93264 2.8367 3.90871 3.01736 3.809L3.1944 3.71327L3.09323 3.809C2.99207 3.90871 2.7536 4.00045 2.6994 3.96455C2.68495 3.95259 2.67049 3.96455 2.67049 3.98848C2.67049 4.07225 2.90535 4.18792 3.08601 4.1919C3.2486 4.1919 3.25583 4.19589 3.17634 4.23578C3.12575 4.25971 3.0282 4.29162 2.95955 4.30757L2.83309 4.33948L2.97039 4.34347C3.15105 4.34746 3.14021 4.41128 2.95232 4.45117L2.79695 4.48307L3.01374 4.52695C3.19802 4.56684 3.21608 4.5788 3.14382 4.60273C3.09685 4.62268 2.99207 4.63464 2.90896 4.63464H2.76082L2.90535 4.71043C3.01374 4.77026 3.10046 4.78621 3.25944 4.77026C3.37145 4.76228 3.46539 4.76228 3.46539 4.77424C3.46539 4.78222 3.39313 4.8261 3.3028 4.86997C3.21247 4.91385 3.14021 4.96171 3.14021 4.97368C3.14021 4.98564 3.25944 4.98963 3.40397 4.97766C3.84477 4.94576 4.27113 4.67852 4.5096 4.28364C4.57102 4.17994 4.6216 4.11612 4.6216 4.14404C4.6216 4.23578 4.50598 4.4392 4.33616 4.63863L4.16996 4.83806L4.3181 4.7543C4.50598 4.6506 4.66496 4.45117 4.80226 4.14803C4.86369 4.0164 4.92872 3.90871 4.94679 3.90871C4.99015 3.90871 5.04796 4.02837 5.12384 4.27965L5.18526 4.48307L5.23584 4.29561C5.26114 4.1919 5.29727 4.09618 5.31533 4.08421C5.3623 4.0523 5.56825 4.20786 5.67304 4.35544C5.78505 4.51498 5.91512 4.78621 5.98377 5.00559L6.03074 5.16513L6.01267 4.94177C5.991 4.67453 5.92596 4.48706 5.75614 4.21982C5.53935 3.86883 5.62245 3.62951 5.98738 3.54973C6.28005 3.48193 6.59078 3.29047 6.72086 3.09503C7.02436 2.63634 6.98462 1.91041 6.6233 1.43975C6.54742 1.34003 6.52574 1.26824 6.53297 1.1765C6.56188 0.797578 6.1283 0.314953 5.56464 0.0955787C5.26114 -0.0240803 4.74445 -0.0320573 4.44095 0.0756354ZM6.32702 2.26141C6.28728 2.34517 6.2114 2.45685 6.1572 2.51269C6.04158 2.62836 5.95848 2.8238 5.95848 2.97936C5.95848 3.1748 5.87899 3.29047 5.76337 3.27851C5.68749 3.26654 5.65858 3.2825 5.64413 3.3503C5.62607 3.41811 5.60077 3.43406 5.5249 3.4221C5.44179 3.40614 5.43095 3.41811 5.44541 3.49788C5.45625 3.55372 5.44179 3.58962 5.4165 3.58962C5.39121 3.58962 5.3334 3.6335 5.28643 3.68934C5.20694 3.78506 5.19249 3.78905 5.10216 3.73321C4.87814 3.60956 4.79504 3.40216 4.90343 3.25059L4.97208 3.15486L5.01183 3.25059C5.0588 3.36227 5.14913 3.39019 5.10938 3.27851C4.99376 2.97138 4.99015 2.63235 5.10216 2.48876C5.17803 2.39303 5.21416 2.38107 5.58271 2.35314C5.7995 2.33719 6.0199 2.30528 6.07049 2.28135C6.19695 2.22551 6.35593 2.01012 6.36315 1.88249C6.36677 1.82266 6.37399 1.85058 6.38122 1.94232C6.39206 2.054 6.37399 2.1577 6.32702 2.26141Z"
              fill="#FFFF54" />
            <path
              d="M8.14434 3.63754L7.99982 3.80905L8.15518 3.64951C8.2961 3.50592 8.325 3.47002 8.2961 3.47002C8.28887 3.47002 8.22022 3.5458 8.14434 3.63754Z"
              fill="#FFFF54" />
            <path
              d="M9.69443 3.67742C9.85341 3.92073 9.91122 4.10819 9.90761 4.41133C9.904 4.85008 9.66914 5.28085 9.33673 5.44837C8.84173 5.70364 8.20581 5.42843 7.96011 4.84609C7.85172 4.59082 7.84449 4.23982 7.94566 3.99651C7.98179 3.90477 8.00708 3.82899 7.99624 3.82899C7.9854 3.82899 7.94205 3.91275 7.89869 4.01645C7.84088 4.16403 7.82281 4.28369 7.82281 4.527C7.82281 4.80221 7.84088 4.88597 7.94205 5.13327C8.02876 5.34068 8.05405 5.44837 8.0396 5.53213C8.00708 5.68769 7.77223 5.931 7.25193 6.35778C6.86171 6.67687 6.42813 7.13955 6.42813 7.23129C6.42813 7.25522 6.57988 7.11163 6.76415 6.91619C6.94481 6.71676 7.24832 6.44553 7.43259 6.30593C7.61686 6.16633 7.77584 6.03869 7.78307 6.01875C7.80836 5.97886 8.01792 6.05464 8.08657 6.12245C8.12632 6.16633 8.0938 6.2461 7.86617 6.60906C7.71803 6.84439 7.52653 7.17545 7.43982 7.33898C7.05321 8.07688 6.74247 8.37603 6.3667 8.37603C6.0921 8.37603 5.85002 8.12474 5.85002 7.84554C5.85002 7.78172 5.80305 7.67004 5.74163 7.58628C5.55013 7.32303 5.46703 6.65294 5.56458 6.18627C5.58987 6.05464 5.58626 5.9988 5.55374 5.95094C5.52484 5.91105 5.50677 5.76746 5.50677 5.53612V5.18113L5.43451 5.27686C5.39476 5.32871 5.34418 5.40849 5.3225 5.44837C5.28637 5.51219 5.27553 5.48028 5.25385 5.26489C5.21772 4.92586 5.17797 4.84609 5.14907 5.04951C5.08764 5.43242 4.78775 5.81134 4.46618 5.90706C4.26023 5.96689 4.06873 5.931 3.77245 5.77544C3.44365 5.60393 3.27022 5.60393 2.97755 5.77943C2.80051 5.88712 2.73186 5.90706 2.60178 5.89111C2.32357 5.8592 2.13568 5.63584 2.09594 5.30079L2.07065 5.08541L1.96948 5.26091C1.82857 5.50421 1.76714 5.7196 1.76714 5.97088C1.76714 6.2461 1.619 6.80052 1.45641 7.12759C1.34079 7.37089 1.33717 7.37887 1.41666 7.3669C1.49254 7.35893 1.49615 7.37488 1.50699 7.63015C1.51783 7.91335 1.49615 7.99711 1.17458 8.93444L1.04451 9.31336L1.06257 9.01421C1.07703 8.80281 1.0698 8.73899 1.04451 8.79483C1.00115 8.89455 0.863849 9.69228 0.863849 9.84783C0.863849 9.98744 0.777133 10.0353 0.672351 9.95952C0.600088 9.90766 0.596474 9.87177 0.607314 9.14982C0.618153 8.23244 0.661511 7.72987 0.751841 7.42673C0.845783 7.12759 0.820491 7.11163 0.719322 7.40679C0.567569 7.84953 0.535051 8.12076 0.516985 9.13387C0.491693 10.2108 0.491693 10.2108 0.224318 10.6216C-0.0972539 11.1082 -0.0719618 11.7305 0.292968 12.1812C0.509758 12.4564 0.748227 12.58 1.06257 12.58C1.20349 12.584 1.36608 12.5721 1.42389 12.5521L1.53229 12.5202L1.52506 12.8513C1.52145 13.1624 1.52145 13.1664 1.55035 12.963C1.5901 12.6439 1.63707 12.5441 1.85386 12.2929C2.1393 11.9578 2.20795 11.7823 2.23685 11.3077C2.25492 10.9966 2.28021 10.857 2.35609 10.6735C2.41029 10.5458 2.44642 10.4302 2.43919 10.4222C2.43196 10.4142 2.37415 10.506 2.30912 10.6256C2.17543 10.8849 2.14291 10.9168 2.11039 10.8131C2.04536 10.5897 1.7563 10.2786 1.53229 10.1988C1.46002 10.1749 1.46002 10.1749 1.52867 10.2228C2.06342 10.5937 2.25853 11.2678 2.002 11.8262C1.87915 12.0894 1.63707 12.3248 1.40582 12.4006C0.914433 12.5641 0.426656 12.3328 0.184573 11.8262C0.105083 11.6587 0.0906308 11.5749 0.0870176 11.3077C0.0870176 10.9407 0.162894 10.7174 0.383297 10.4701C0.524211 10.3105 0.827717 10.131 0.965018 10.131C1.03728 10.131 1.04451 10.1111 1.04451 9.93957C1.04451 9.67632 1.16013 9.23757 1.35524 8.7709C1.58287 8.22047 1.59371 8.18457 1.62261 7.5783C1.64068 7.20337 1.67681 6.94012 1.73824 6.70878L1.82495 6.37772L1.8936 6.46547C1.93335 6.51334 2.02729 6.59311 2.09955 6.64496C2.23685 6.74069 2.36331 6.96804 2.45364 7.27915C2.51868 7.50252 2.66682 7.81762 2.70295 7.81762C2.72102 7.81762 2.69934 7.74184 2.65237 7.64611C2.40306 7.14354 2.57288 6.96804 3.1835 7.10764C3.37861 7.15152 3.40029 7.15152 3.49062 7.06776C3.88446 6.71676 4.13015 6.65294 4.36862 6.82844C4.57819 6.98798 4.64684 7.14753 4.74801 7.74981C4.76607 7.84155 4.82027 7.88543 5.12016 8.04896C5.4056 8.20053 5.48148 8.26435 5.53929 8.38002C5.60071 8.50366 5.60433 8.53956 5.56458 8.63928C5.47787 8.87461 4.79136 9.36521 4.27829 9.55666C4.04705 9.64441 3.92059 9.66834 3.64599 9.66834C3.34248 9.67233 3.28106 9.66037 3.1004 9.56065C2.86554 9.43302 2.77883 9.28544 2.77883 9.00623C2.77883 8.85068 2.83303 8.57546 2.90168 8.35608C2.92697 8.28429 2.92336 8.28429 2.85832 8.36805C2.6885 8.57546 2.53675 9.37717 2.5801 9.81592L2.6054 10.0433L2.69934 9.98744C2.84025 9.90766 2.94142 9.91963 3.06427 10.0313C3.21602 10.1749 3.25938 10.3504 3.23047 10.7213L3.20518 11.0285L3.32803 10.7692C3.45449 10.49 3.55566 10.4182 3.72909 10.4661C3.86278 10.502 4.06512 10.7373 4.09041 10.8889C4.15906 11.2678 3.47256 12.7077 2.75715 13.6849C2.63069 13.8564 2.53313 14 2.54397 14C2.58733 14 3.15098 13.4695 3.39668 13.1943C3.86639 12.6718 4.35778 11.91 4.59264 11.3356C4.64684 11.2 4.70826 11.0883 4.72994 11.0883C4.78414 11.0883 4.83111 11.2119 4.94312 11.6706C5.08764 12.261 5.14907 12.4484 5.30805 12.8273C5.42728 13.1145 5.79221 13.7607 5.83196 13.7607C5.83918 13.7607 5.7886 13.649 5.71633 13.5134C5.35502 12.8353 5.18881 12.3008 5.14184 11.6627C5.10571 11.1561 5.22856 10.3903 5.34779 10.3903C5.37308 10.3903 5.42367 10.486 5.4598 10.6097L5.52122 10.829V10.506C5.52845 9.91564 5.68743 9.58458 6.04875 9.43302C6.2836 9.32931 6.38838 9.40908 6.53291 9.788C6.73525 10.3265 6.79306 10.6735 6.81474 11.4872C6.8328 12.1931 6.82558 12.3168 6.69912 13.5014C6.68466 13.6171 6.70996 13.5652 6.79306 13.31C6.85448 13.1145 6.90868 12.963 6.91591 12.9709C6.92313 12.9789 6.90507 13.1624 6.87977 13.3818C6.85448 13.6011 6.83642 13.7846 6.84003 13.7926C6.84726 13.7966 6.887 13.6729 6.92675 13.5134C7.06043 13.0148 7.11463 12.5083 7.11463 11.7863C7.11102 10.4222 6.89061 9.35324 6.51123 8.89056C6.43897 8.80281 6.38838 8.72703 6.39561 8.72304C6.40284 8.71506 6.48594 8.66321 6.57988 8.60338C6.9954 8.34013 7.37478 7.84155 7.8734 6.90422C8.04683 6.57716 8.22026 6.29795 8.2853 6.24211C8.46234 6.09852 8.73694 5.95892 8.98987 5.88712C9.18859 5.83128 9.25724 5.78342 9.51739 5.52416C9.86787 5.17316 9.97265 4.95378 9.99794 4.54694C10.016 4.21588 9.91484 3.90477 9.7125 3.66146L9.56797 3.48995L9.69443 3.67742ZM9.2464 5.6837C9.18136 5.7555 8.95735 5.81134 8.95735 5.7555C8.95735 5.73156 9.026 5.69567 9.11271 5.67572C9.19582 5.65179 9.27169 5.63185 9.28253 5.62786C9.28976 5.62786 9.27531 5.65179 9.2464 5.6837ZM5.28637 6.84838C5.3225 6.93214 5.39115 7.11562 5.43451 7.25921C5.47787 7.4028 5.55735 7.6501 5.60794 7.80565C5.65852 7.9652 5.69466 8.09682 5.68743 8.09682C5.6513 8.09682 5.14184 7.72189 5.1021 7.66605C5.0768 7.63015 5.05512 7.51448 5.05512 7.40679C5.05512 7.21135 5.15991 6.7008 5.19965 6.7008C5.2141 6.7008 5.25024 6.76861 5.28637 6.84838Z"
              fill="#FFFF54" />
            <path
              d="M9.30423 3.79717C9.53908 4.02452 9.63664 4.43136 9.53186 4.7345C9.44514 4.98977 9.13802 5.2251 8.8851 5.2251C8.58882 5.2251 8.26002 4.92994 8.17692 4.59888C8.15163 4.4872 8.12995 4.44732 8.12995 4.50316C8.12272 4.79034 8.32506 5.14533 8.57437 5.26897C8.90678 5.4365 9.36927 5.30088 9.56438 4.9778C9.7089 4.7345 9.71974 4.37951 9.58967 4.08834C9.53186 3.94874 9.44514 3.82908 9.36204 3.76925C9.17777 3.62965 9.14525 3.6456 9.30423 3.79717Z"
              fill="#FFFF54" />
            <path
              d="M9.09108 4.11227C9.25729 4.31569 9.26451 4.52709 9.11276 4.71455C8.97185 4.88607 8.6575 4.82225 8.54188 4.5949L8.48407 4.4872L8.50575 4.60686C8.55995 4.92196 8.94294 5.05758 9.17057 4.84219C9.41265 4.61883 9.3693 4.22395 9.08386 4.06042C9.01521 4.02053 9.01521 4.02452 9.09108 4.11227Z"
              fill="#FFFF54" />
            <path
              d="M0.932468 5.612C0.874657 5.81542 0.849365 7.09976 0.907176 7.09976C0.936081 7.09976 0.939694 6.94421 0.928855 6.58124C0.914402 6.25018 0.925241 5.95901 0.954147 5.77554C1.00473 5.44448 0.997505 5.38465 0.932468 5.612Z"
              fill="#FFFF54" />
            <path
              d="M6.26905 5.99882C6.31964 6.13045 6.3919 6.36976 6.42803 6.53729L6.5003 6.84042L6.48223 6.60111C6.45694 6.29398 6.38106 6.03472 6.26544 5.88315L6.17511 5.76349L6.26905 5.99882Z"
              fill="#FFFF54" />
            <path
              d="M3.53766 7.86551C3.53766 7.88146 3.5774 7.99713 3.62799 8.12078C3.74 8.40398 3.74 8.4319 3.62076 8.48375L3.51959 8.52762L3.63521 8.53161C3.76529 8.5356 3.79419 8.5715 3.83032 8.77492L3.85562 8.91452L3.85923 8.76295C3.86284 8.56751 3.91343 8.47178 4.05073 8.37605L4.16274 8.30426L4.01821 8.3242C3.87007 8.34415 3.86284 8.34016 3.59186 7.91736C3.56295 7.87349 3.53766 7.84956 3.53766 7.86551Z"
              fill="#FFFF54" />
            <path
              d="M1.2939 10.5459C1.87201 10.7573 1.98041 11.559 1.48902 11.9419C1.21441 12.1533 0.813353 12.1174 0.603789 11.8581C0.473715 11.7026 0.383385 11.4074 0.401451 11.2C0.412291 11.0843 0.408678 11.0245 0.390612 11.0564C0.372546 11.0843 0.358093 11.216 0.358093 11.3476C0.358093 11.918 0.827805 12.3448 1.30113 12.2052C1.66245 12.1014 1.91176 11.7624 1.91176 11.3755C1.91176 10.9687 1.61186 10.5698 1.26139 10.51C1.14938 10.49 1.15299 10.494 1.2939 10.5459Z"
              fill="#FFFF54" />
            <path
              d="M1.29012 11.0004C1.478 11.1959 1.43465 11.507 1.19979 11.6426C0.993839 11.7583 0.76621 11.6187 0.719238 11.3435L0.690333 11.1879L0.68672 11.3554C0.683107 11.4791 0.704786 11.5509 0.773436 11.6426C1.04804 12.0016 1.51414 11.8141 1.51414 11.3475C1.51414 11.156 1.44549 11.0324 1.28651 10.9406L1.17088 10.8768L1.29012 11.0004Z"
              fill="#FFFF54" />
            <path
              d="M5.60075 11.6468C5.59713 11.93 5.65494 12.2331 5.77779 12.5402C5.87535 12.7915 5.90064 12.7636 5.82476 12.4844C5.79224 12.3647 5.73082 12.0696 5.68385 11.8263L5.60075 11.3875V11.6468Z"
              fill="#FFFF54" />
            <path
              d="M2.94497 12.3606C2.84741 12.6916 2.77515 12.9708 2.78599 12.9828C2.84019 13.0426 3.16899 11.9218 3.13285 11.8022C3.12563 11.7782 3.03891 12.0295 2.94497 12.3606Z"
              fill="#FFFF54" />
          </svg>