<svg width="30" height="29" viewBox="0 0 30 29" fill="none" xmlns="http://www.w3.org/2000/svg">
<path d="M16.4142 0.60605C15.6332 -0.174999 14.3668 -0.174998 13.5858 0.60605L0.857865 13.334C0.0768166 14.115 0.0768167 15.3814 0.857866 16.1624C1.63891 16.9434 2.90524 16.9434 3.68629 16.1624L15 4.84869L26.3137 16.1624C27.0948 16.9434 28.3611 16.9434 29.1421 16.1624C29.9232 15.3813 29.9232 14.115 29.1421 13.334L16.4142 0.60605ZM17 3.02026L17 2.02026L13 2.02026L13 3.02026L17 3.02026Z" fill="#818106"/>
<path d="M16.0607 10.9596C15.4749 10.3738 14.5251 10.3738 13.9393 10.9596L4.3934 20.5055C3.80761 21.0913 3.80761 22.0411 4.3934 22.6269C4.97919 23.2127 5.92893 23.2127 6.51472 22.6269L15 14.1416L23.4853 22.6269C24.0711 23.2127 25.0208 23.2127 25.6066 22.6269C26.1924 22.0411 26.1924 21.0913 25.6066 20.5055L16.0607 10.9596ZM16.5 13.0203L16.5 12.0203L13.5 12.0203L13.5 13.0203L16.5 13.0203Z" fill="#FFFF6E"/>
<path d="M15.7071 20.3132C15.3166 19.9226 14.6834 19.9226 14.2929 20.3132L7.92893 26.6771C7.53841 27.0676 7.53841 27.7008 7.92893 28.0913C8.31946 28.4819 8.95262 28.4819 9.34315 28.0913L15 22.4345L20.6569 28.0913C21.0474 28.4819 21.6805 28.4819 22.0711 28.0913C22.4616 27.7008 22.4616 27.0676 22.0711 26.6771L15.7071 20.3132ZM16 22.0203L16 21.0203L14 21.0203L14 22.0203L16 22.0203Z" fill="#FFFFC7"/>
</svg>
