<svg width="60" height="60" viewBox="0 0 60 60" fill="none" xmlns="http://www.w3.org/2000/svg">
<path d="M29.9846 39.0076C32.2153 39.0076 34.0865 38.2518 35.598 36.7403C37.1095 35.2288 37.8653 33.3576 37.8653 31.1269C37.8653 28.8961 37.1095 27.0301 35.598 25.5289C34.0865 24.0276 32.2153 23.2769 29.9846 23.2769C27.7538 23.2769 25.8878 24.0276 24.3865 25.5289C22.8852 27.0301 22.1346 28.8961 22.1346 31.1269C22.1346 33.3576 22.8852 35.2288 24.3865 36.7403C25.8878 38.2518 27.7538 39.0076 29.9846 39.0076ZM29.9846 36.7384C28.382 36.7384 27.0512 36.2038 25.9923 35.1346C24.9333 34.0653 24.4038 32.7294 24.4038 31.1269C24.4038 29.5243 24.9333 28.1935 25.9923 27.1346C27.0512 26.0756 28.382 25.5461 29.9846 25.5461C31.5871 25.5461 32.923 26.0756 33.9923 27.1346C35.0615 28.1935 35.5961 29.5243 35.5961 31.1269C35.5961 32.7294 35.0615 34.0653 33.9923 35.1346C32.923 36.2038 31.5871 36.7384 29.9846 36.7384ZM13.8847 45.9999C13.1004 45.9999 12.4235 45.7152 11.8541 45.1458C11.2847 44.5764 11 43.8996 11 43.1153V19.1384C11 18.3718 11.2847 17.6994 11.8541 17.1212C12.4235 16.543 13.1004 16.2538 13.8847 16.2538H20.7539L24.4231 12H35.5769L39.2461 16.2538H46.1153C46.8819 16.2538 47.5544 16.543 48.1326 17.1212C48.7108 17.6994 48.9999 18.3718 48.9999 19.1384V43.1153C48.9999 43.8996 48.7108 44.5764 48.1326 45.1458C47.5544 45.7152 46.8819 45.9999 46.1153 45.9999H13.8847ZM46.1153 43.7307C46.2948 43.7307 46.4422 43.673 46.5576 43.5576C46.673 43.4422 46.7307 43.2948 46.7307 43.1153V19.1384C46.7307 18.9718 46.673 18.8275 46.5576 18.7057C46.4422 18.584 46.2948 18.5231 46.1153 18.5231H38.1923L34.523 14.2692H25.4769L21.8077 18.5231H13.8847C13.7052 18.5231 13.5577 18.584 13.4423 18.7057C13.3269 18.8275 13.2692 18.9718 13.2692 19.1384V43.1153C13.2692 43.2948 13.3269 43.4422 13.4423 43.5576C13.5577 43.673 13.7052 43.7307 13.8847 43.7307H46.1153Z" fill="#EEFBEA"/>
<rect x="1" y="1" width="58" height="58" rx="29" stroke="#EEFBEA" stroke-width="2"/>
</svg>
