<svg display="none" xmlns="http://www.w3.org/2000/svg">
<symbol id="facebook" viewBox="0 0 42 42">
<g>
<rect x="2" y="2" width="38" height="38" rx="7" fill="#EEFBEA" stroke="currentColor" stroke-width="2" />
<path fill="currentColor" d="M28.6402 13.2069H30.8336V9.49686C29.7716 9.38644 28.7046 9.33192 27.6369 9.33353C24.4636 9.33353 22.2936 11.2702 22.2936 14.8169V17.8735H18.7119V22.0269H22.2936V32.6669H26.5869V22.0269H30.1569L30.6936 17.8735H26.5869V15.2252C26.5869 14.0002 26.9136 13.2069 28.6402 13.2069Z" />
</g>
</symbol>
                                                    
<symbol id="instagram" viewbox="0 0 42 42">
<g>
<rect x="2" y="2" width="38" height="38" rx="7" fill="#EEFBEA" stroke="currentColor" stroke-width="2"/>
<path fill="none" d="M21 29C25.4183 29 29 25.4183 29 21C29 16.5817 25.4183 13 21 13C16.5817 13 13 16.5817 13 21C13 25.4183 16.5817 29 21 29Z" stroke="currentColor" stroke-width="3" stroke-miterlimit="10"/>
<path d="M32.5 12C33.8807 12 35 10.8807 35 9.5C35 8.11929 33.8807 7 32.5 7C31.1193 7 30 8.11929 30 9.5C30 10.8807 31.1193 12 32.5 12Z" fill="currentColor"/>
</g>
</symbol>

<symbol id="scroll-up" width="42" height="42" viewBox="0 0 42 42" fill="none">
<g>
<path d="M33 31L22.4142 20.4142C21.6332 19.6332 20.3668 19.6332 19.5858 20.4142L9 31" stroke="#800000" stroke-width="2" stroke-linecap="round"/>
<path d="M33 23L22.4142 12.4142C21.6332 11.6332 20.3668 11.6332 19.5858 12.4142L9 23" stroke="#800000" stroke-width="2" stroke-linecap="round"/>
<rect x="1" y="1" width="40" height="40" rx="7" stroke="#800000" stroke-width="2"/>
</g>
</symbol>

<symbol id="geoicon" width="21" height="29" viewBox="0 0 21 29" fill="none">
<path d="M10.5 2.99992C13.3875 2.99992 15.75 5.39992 15.75 8.33325C15.75 11.1333 12.9937 15.6666 10.5 18.8666C8.00625 15.5333 5.25 11.1333 5.25 8.33325C5.25 5.39992 7.6125 2.99992 10.5 2.99992ZM10.5 0.333252C6.16875 0.333252 2.625 3.93325 2.625 8.33325C2.625 14.3333 10.5 22.9999 10.5 22.9999C10.5 22.9999 18.375 14.1999 18.375 8.33325C18.375 3.93325 14.8313 0.333252 10.5 0.333252ZM10.5 5.66659C9.05625 5.66659 7.875 6.86659 7.875 8.33325C7.875 9.79992 9.05625 10.9999 10.5 10.9999C11.9438 10.9999 13.125 9.79992 13.125 8.33325C13.125 6.86659 11.9438 5.66659 10.5 5.66659ZM21 22.9999C21 25.9333 16.275 28.3333 10.5 28.3333C4.725 28.3333 0 25.9333 0 22.9999C0 21.2666 1.575 19.7999 4.06875 18.7333L4.85625 19.9333C3.54375 20.5999 2.625 21.3999 2.625 22.3333C2.625 24.1999 6.16875 25.6666 10.5 25.6666C14.8313 25.6666 18.375 24.1999 18.375 22.3333C18.375 21.3999 17.4563 20.5999 16.0125 19.9333L16.8 18.7333C19.425 19.7999 21 21.2666 21 22.9999Z" fill="#0B0B0B"/>
</symbol>

<symbol id="tg2" width="40" height="41" viewBox="0 0 40 41" fill="none">
<path d="M33.9202 10.4268L29.6948 29.9452C29.3757 31.3225 28.5446 31.6653 27.3635 31.0168L20.9248 26.3697L17.8185 29.2967C17.4745 29.6337 17.1874 29.9148 16.5244 29.9148L16.9874 23.4926L28.9197 12.9317C29.4387 12.4791 28.8067 12.2273 28.1136 12.6809L13.362 21.7793L7.01134 19.8319C5.6302 19.4097 5.6052 18.4791 7.29938 17.8296L32.139 8.45591C33.2891 8.0337 34.2952 8.7057 33.9202 10.4268Z" fill="currentColor"/>
</symbol>

<symbol id="telegram" width="40" height="40" viewBox="0 0 40 40" fill="none">
<g clip-path="url(#clip0_791_2770)">
<path d="M33.9202 10.0936L29.6948 29.6119C29.3757 30.9892 28.5446 31.3321 27.3635 30.6836L20.9248 26.0364L17.8185 28.9634C17.4745 29.3004 17.1874 29.5815 16.5244 29.5815L16.9874 23.1594L28.9197 12.5984C29.4387 12.1458 28.8067 11.8941 28.1136 12.3476L13.362 21.4461L7.01134 19.4986C5.6302 19.0764 5.6052 18.1458 7.29938 17.4963L32.139 8.12266C33.2891 7.70045 34.2952 8.37245 33.9202 10.0936Z" fill="currentColor"/>
<rect x="1" y="1" width="38" height="38" rx="7" stroke="currentColor" stroke-width="2"/>
</g>
<defs>
<clipPath id="clip0_791_2770">
<rect width="40" height="40" fill="white"/>
</clipPath>
</defs>
</symbol>

<symbol id="callbtn" width="62" height="62" viewBox="0 0 62 62" fill="none">
<g>
<rect x="1" y="1" width="60" height="60" rx="30" fill="#EEFBEA"/>
<path d="M40.6381 42C38.1155 42 35.6174 41.4007 33.1439 40.202C30.6703 39.0034 28.462 37.4314 26.519 35.4861C24.5759 33.5408 23.0036 31.3321 21.8022 28.8599C20.6007 26.3877 20 23.8889 20 21.3635C20 20.9739 20.1297 20.6493 20.3891 20.3896C20.6485 20.1299 20.9728 20 21.3619 20H25.5922C25.9282 20 26.2212 20.1036 26.4715 20.3109C26.7218 20.5182 26.8768 20.7858 26.9367 21.1137L27.68 24.9344C27.7316 25.254 27.7261 25.5445 27.6638 25.8059C27.6014 26.0673 27.4647 26.2953 27.2535 26.4901L24.2702 29.4093C25.2946 31.1507 26.516 32.7239 27.9345 34.129C29.3529 35.534 30.9584 36.7593 32.7511 37.8048L35.6495 34.8532C35.8607 34.6417 36.1105 34.4915 36.399 34.4024C36.6875 34.3134 36.9831 34.2946 37.2857 34.3462L40.8875 35.0804C41.2151 35.1537 41.4824 35.3122 41.6895 35.5561C41.8965 35.8 42 36.0901 42 36.4264V40.6365C42 41.0261 41.8703 41.3507 41.6109 41.6104C41.3515 41.8701 41.0272 42 40.6381 42ZM23.3374 27.5664L25.6522 25.3489C25.6937 25.3156 25.7208 25.2698 25.7332 25.2116C25.7457 25.1533 25.7436 25.0992 25.727 25.0493L25.1633 22.1475C25.1466 22.0809 25.1175 22.031 25.0759 21.9977C25.0344 21.9644 24.9803 21.9478 24.9138 21.9478H22.1401C22.0902 21.9478 22.0486 21.9644 22.0154 21.9977C21.9821 22.031 21.9655 22.0726 21.9655 22.1226C22.032 23.0099 22.1771 23.9114 22.4008 24.827C22.6244 25.7427 22.9366 26.6558 23.3374 27.5664ZM34.5719 38.7137C35.4316 39.115 36.3283 39.4217 37.262 39.634C38.1957 39.8462 39.0684 39.9723 39.8799 40.0123C39.9298 40.0123 39.9713 39.9956 40.0046 39.9623C40.0378 39.929 40.0545 39.8874 40.0545 39.8375V37.1056C40.0545 37.039 40.0378 36.9849 40.0046 36.9432C39.9713 36.9016 39.9214 36.8725 39.8549 36.8558L37.1311 36.3015C37.0812 36.2848 37.0375 36.2828 37.0001 36.2952C36.9627 36.3077 36.9232 36.3348 36.8816 36.3764L34.5719 38.7137Z" fill="#800000"/>
<rect x="1" y="1" width="60" height="60" rx="30" stroke="#800000" stroke-width="2"/>
</g>
</symbol>

<symbol id="vector-6" width="313" height="122" viewBox="0 0 313 122" fill="none">
<path d="M154 11C154 11 249.985 40.7807 302.5 91.5C267.772 91.5 126.354 26.9561 58.5933 30.5789C105.179 58.0088 141.168 62.8509 203 111.5C156.414 93.9035 11 57.5 11 57.5" stroke="#FFCC46" stroke-width="20" stroke-linecap="round" stroke-linejoin="round"/>
</symbol>

<symbol id="vector-3" width="180" height="114" viewBox="0 0 180 114" fill="none">
<path d="M39.4006 108L174 27.5L6 93L143.445 10.4796C97.0738 28.654 71.0754 38.8437 24.7044 57.0181L105.293 6" stroke="#FFCC46" stroke-width="12" stroke-linecap="round" stroke-linejoin="round"/>
</symbol>

</svg>

