<svg width="50" height="50" viewBox="0 0 50 50" fill="none" xmlns="http://www.w3.org/2000/svg">
<path d="M49.058 22.773L27.2317 0.942892C25.9756 -0.314297 23.937 -0.314297 22.6789 0.942892L18.1475 5.47654L23.8966 11.227C25.2331 10.7758 26.7648 11.0784 27.8297 12.1435C28.9001 13.2153 29.2006 14.7605 28.7377 16.1016L34.2785 21.6445C35.619 21.1823 37.1661 21.4809 38.2361 22.5536C39.733 24.0496 39.733 26.4748 38.2361 27.9717C36.7393 29.4689 34.3153 29.4689 32.8177 27.9717C31.6923 26.8452 31.4139 25.1915 31.9841 23.8044L26.8171 18.6358L26.8163 32.2379C27.1814 32.4182 27.5256 32.659 27.8297 32.962C29.3262 34.458 29.3262 36.8825 27.8297 38.3817C26.3332 39.8777 23.9077 39.8777 22.4128 38.3817C20.9167 36.8829 20.794 34.4584 22.2897 32.962C22.6595 32.5924 23.0242 32.3132 23.4202 32.1262V18.3982C23.0242 18.2112 22.6599 17.934 22.2893 17.562C21.1563 16.4292 20.9445 14.7656 21.5258 13.373L15.8895 7.70375L0.93902 22.672C-0.318274 23.9304 -0.310354 25.9694 0.94694 27.227L22.7767 49.0571C24.0332 50.3143 26.0734 50.3143 27.3319 49.0571L49.0564 27.3284C50.3137 26.0704 50.3149 24.0302 49.058 22.773V22.773Z" fill="#767600"/>
</svg>
