<svg width="40" height="40" viewBox="0 0 40 40" fill="none" xmlns="http://www.w3.org/2000/svg">
<path d="M39.2464 18.2184L21.7854 0.754313C20.7805 -0.251438 19.1496 -0.251438 18.1431 0.754313L14.518 4.38123L19.1173 8.98158C20.1865 8.62066 21.4119 8.86275 22.2637 9.71482C23.1201 10.5723 23.3605 11.8084 22.9902 12.8813L27.4228 17.3156C28.4952 16.9458 29.7329 17.1848 30.5889 18.0428C31.7864 19.2397 31.7864 21.1799 30.5889 22.3773C29.3914 23.5751 27.4523 23.5751 26.2541 22.3773C25.3538 21.4761 25.1311 20.1532 25.5873 19.0435L21.4537 14.9087L21.4531 25.7904C21.7451 25.9345 22.0204 26.1272 22.2637 26.3696C23.4609 27.5664 23.4609 29.506 22.2637 30.7054C21.0666 31.9022 19.1262 31.9022 17.9303 30.7054C16.7334 29.5063 16.6352 27.5667 17.8317 26.3696C18.1276 26.074 18.4194 25.8506 18.7362 25.701V14.7185C18.4194 14.569 18.1279 14.3472 17.8314 14.0496C16.9251 13.1434 16.7556 11.8125 17.2206 10.6984L12.7116 6.163L0.751216 18.1376C-0.254619 19.1443 -0.248283 20.7755 0.757552 21.7816L18.2214 39.2457C19.2266 40.2514 20.8587 40.2514 21.8655 39.2457L39.2451 21.8627C40.2509 20.8563 40.2519 19.2241 39.2464 18.2184Z" fill="#FFFF54"/>
</svg>
