<svg width="50" height="50" viewBox="0 0 50 50" fill="none" xmlns="http://www.w3.org/2000/svg">
<path d="M0 0V50H50V0H0ZM3.15789 2.72727H46.8421V47.2727H3.15789V2.72727ZM12.0844 11.7107C12.0844 11.568 12.3781 11.4607 12.5484 11.4607C13.8906 11.3934 15.8609 11.3517 17.9203 11.3517C23.6984 11.3517 25.9437 14.5987 25.9437 18.756C25.9437 24.1907 22.1031 26.5193 17.3984 26.5193C16.6016 26.5193 16.3328 26.4777 15.7797 26.4777V34.6913C15.7797 34.866 15.7141 34.9413 15.5438 34.9413H12.3203C12.15 34.9413 12.0844 34.874 12.0844 34.6993V11.7107ZM15.7797 23.064C16.2594 23.0976 16.6422 23.0976 17.4719 23.0976C19.9047 23.0976 22.2 22.213 22.2 18.8329C22.2 16.1196 20.5563 14.7429 17.7734 14.7429C16.9516 14.7429 16.1625 14.7766 15.7797 14.8102V23.064ZM33.7156 20.5173C32.0641 20.5173 31.5109 21.3684 31.5109 22.0703C31.5109 22.846 31.8859 23.3733 34.0906 24.5416C37.3547 26.1699 38.3875 27.7133 38.3875 30.0083C38.3875 33.422 35.8406 35.2587 32.4063 35.2587C30.5828 35.2587 29.0297 34.866 28.1344 34.3403C28.0047 34.273 27.9719 34.1657 27.9719 33.9894V30.8513C27.9719 30.643 28.0703 30.5677 28.2078 30.6766C29.5094 31.5613 31.0234 31.946 32.3984 31.946C34.05 31.946 34.7344 31.244 34.7344 30.2856C34.7344 29.5099 34.2547 28.8416 32.1625 27.7149C29.2 26.2629 27.9625 24.7852 27.9625 22.3139C27.9625 19.5589 30.0625 17.2719 33.7 17.2719C35.4906 17.2719 36.7516 17.5556 37.4437 17.8649C37.6141 17.9739 37.6469 18.1486 37.6469 18.2912V21.2209C37.6469 21.3956 37.5406 21.5046 37.3375 21.4293C36.4094 20.8699 35.0422 20.5109 33.7078 20.5109L33.7156 20.5173Z" fill="#767600"/>
</svg>
