<svg width="40" height="40" viewBox="0 0 40 40" fill="none" xmlns="http://www.w3.org/2000/svg">
<path d="M0 0V40H40V0H0ZM2.52632 2.18182H37.4737V37.8182H2.52632V2.18182ZM9.6675 9.36855C9.6675 9.25444 9.9025 9.16854 10.0388 9.16854C11.1125 9.11469 12.6887 9.08135 14.3362 9.08135C18.9587 9.08135 20.755 11.679 20.755 15.0048C20.755 19.3525 17.6825 21.2155 13.9187 21.2155C13.2812 21.2155 13.0662 21.1821 12.6237 21.1821V27.7531C12.6237 27.8928 12.5713 27.9531 12.435 27.9531H9.85625C9.72 27.9531 9.6675 27.8992 9.6675 27.7595V9.36855ZM12.6237 18.4512C13.0075 18.4781 13.3138 18.4781 13.9775 18.4781C15.9238 18.4781 17.76 17.7704 17.76 15.0663C17.76 12.8957 16.445 11.7943 14.2188 11.7943C13.5613 11.7943 12.93 11.8213 12.6237 11.8482V18.4512ZM26.9725 16.4139C25.6512 16.4139 25.2088 17.0947 25.2088 17.6563C25.2088 18.2768 25.5088 18.6986 27.2725 19.6333C29.8838 20.936 30.71 22.1707 30.71 24.0067C30.71 26.7376 28.6725 28.2069 25.925 28.2069C24.4663 28.2069 23.2237 27.8928 22.5075 27.4723C22.4037 27.4184 22.3775 27.3325 22.3775 27.1915V24.6811C22.3775 24.5144 22.4562 24.4541 22.5662 24.5413C23.6075 25.2491 24.8187 25.5568 25.9187 25.5568C27.24 25.5568 27.7875 24.9952 27.7875 24.2285C27.7875 23.6079 27.4037 23.0733 25.73 22.1719C23.36 21.0103 22.37 19.8282 22.37 17.8511C22.37 15.6472 24.05 13.8176 26.96 13.8176C28.3925 13.8176 29.4012 14.0445 29.955 14.2919C30.0912 14.3791 30.1175 14.5189 30.1175 14.633V16.9767C30.1175 17.1165 30.0325 17.2037 29.87 17.1434C29.1275 16.6959 28.0338 16.4087 26.9663 16.4087L26.9725 16.4139Z" fill="#FFFF54"/>
</svg>
