<svg width="50" height="58" viewBox="0 0 50 58" fill="none" xmlns="http://www.w3.org/2000/svg">
<path d="M37.7029 32.4684H0V48.0008H32.0237L37.7029 32.4684Z" fill="#767600"/>
<path d="M10.8581 42.9113H12.9089C12.8815 43.505 12.7214 44.0284 12.4284 44.4816C12.1354 44.9347 11.7292 45.2882 11.2096 45.5421C10.694 45.7921 10.0846 45.9171 9.38152 45.9171C8.81121 45.9171 8.30144 45.8214 7.85222 45.63C7.40691 45.4386 7.028 45.1632 6.7155 44.8038C6.40691 44.4445 6.17058 44.0089 6.00652 43.4972C5.84636 42.9855 5.76629 42.4093 5.76629 41.7687V41.3058C5.76629 40.6652 5.85027 40.089 6.01824 39.5773C6.19011 39.0616 6.4323 38.6241 6.7448 38.2648C7.06121 37.9015 7.44011 37.6241 7.88152 37.4327C8.32293 37.2413 8.81316 37.1456 9.35222 37.1456C10.0944 37.1456 10.7214 37.2784 11.2331 37.5441C11.7448 37.8097 12.1413 38.1749 12.4225 38.6398C12.7038 39.1007 12.8698 39.6261 12.9206 40.2159H10.8698C10.862 39.8956 10.8073 39.6281 10.7057 39.4132C10.6042 39.1945 10.444 39.0304 10.2253 38.921C10.0065 38.8116 9.7155 38.757 9.35222 38.757C9.09832 38.757 8.87761 38.8038 8.69011 38.8976C8.50261 38.9913 8.34636 39.1398 8.22136 39.3429C8.09636 39.546 8.00261 39.8097 7.94011 40.1339C7.88152 40.4542 7.85222 40.8409 7.85222 41.2941V41.7687C7.85222 42.2218 7.87957 42.6085 7.93425 42.9288C7.98894 43.2491 8.07683 43.5109 8.19793 43.714C8.31902 43.9171 8.47527 44.0675 8.66668 44.1652C8.86199 44.2589 9.10027 44.3058 9.38152 44.3058C9.69402 44.3058 9.95769 44.257 10.1725 44.1593C10.3874 44.0577 10.5534 43.9054 10.6706 43.7023C10.7878 43.4952 10.8503 43.2316 10.8581 42.9113ZM18.2761 43.5323C18.2761 43.3995 18.2565 43.2804 18.2175 43.1749C18.1784 43.0656 18.1061 42.964 18.0007 42.8702C17.8952 42.7765 17.7428 42.6827 17.5436 42.589C17.3483 42.4913 17.0905 42.3898 16.7702 42.2843C16.3952 42.1593 16.0339 42.0187 15.6862 41.8624C15.3386 41.7023 15.028 41.5167 14.7546 41.3058C14.4811 41.0909 14.2643 40.8409 14.1042 40.5558C13.944 40.2667 13.8639 39.9308 13.8639 39.548C13.8639 39.1808 13.946 38.8507 14.11 38.5577C14.2741 38.2609 14.5026 38.0089 14.7956 37.8019C15.0925 37.5909 15.4401 37.4308 15.8386 37.3214C16.237 37.2081 16.6725 37.1515 17.1452 37.1515C17.7702 37.1515 18.321 37.2609 18.7975 37.4796C19.278 37.6945 19.653 38.0011 19.9225 38.3995C20.196 38.7941 20.3327 39.2609 20.3327 39.7999H18.2878C18.2878 39.5851 18.2428 39.3956 18.153 39.2316C18.0671 39.0675 17.9362 38.9386 17.7604 38.8448C17.5846 38.7511 17.3639 38.7042 17.0983 38.7042C16.8405 38.7042 16.6237 38.7433 16.4479 38.8214C16.2721 38.8995 16.1393 39.005 16.0495 39.1378C15.9596 39.2667 15.9147 39.4093 15.9147 39.5656C15.9147 39.6945 15.9499 39.8116 16.0202 39.9171C16.0944 40.0187 16.1979 40.1144 16.3307 40.2042C16.4675 40.2941 16.6315 40.38 16.8229 40.462C17.0182 40.5441 17.237 40.6241 17.4792 40.7023C17.9323 40.8468 18.3346 41.0089 18.6862 41.1886C19.0417 41.3644 19.3405 41.5656 19.5827 41.7921C19.8288 42.0148 20.0143 42.2687 20.1393 42.5538C20.2682 42.839 20.3327 43.1613 20.3327 43.5206C20.3327 43.9034 20.2585 44.2433 20.11 44.5402C19.9616 44.837 19.7487 45.089 19.4714 45.296C19.194 45.4991 18.862 45.6534 18.4753 45.7589C18.0886 45.8644 17.6569 45.9171 17.1803 45.9171C16.7428 45.9171 16.3112 45.8624 15.8854 45.7531C15.4636 45.6398 15.0807 45.4679 14.737 45.2374C14.3932 45.0031 14.1178 44.7042 13.9108 44.3409C13.7077 43.9738 13.6061 43.5382 13.6061 43.0343H15.6686C15.6686 43.2843 15.7018 43.4952 15.7682 43.6671C15.8346 43.839 15.9323 43.9777 16.0612 44.0831C16.1901 44.1847 16.3483 44.2589 16.5358 44.3058C16.7233 44.3488 16.9382 44.3702 17.1803 44.3702C17.4421 44.3702 17.653 44.3331 17.8132 44.2589C17.9733 44.1808 18.0905 44.0792 18.1647 43.9542C18.2389 43.8253 18.2761 43.6847 18.2761 43.5323ZM25.7878 43.5323C25.7878 43.3995 25.7682 43.2804 25.7292 43.1749C25.6901 43.0656 25.6178 42.964 25.5124 42.8702C25.4069 42.7765 25.2546 42.6827 25.0553 42.589C24.86 42.4913 24.6022 42.3898 24.2819 42.2843C23.9069 42.1593 23.5456 42.0187 23.1979 41.8624C22.8503 41.7023 22.5397 41.5167 22.2663 41.3058C21.9928 41.0909 21.7761 40.8409 21.6159 40.5558C21.4557 40.2667 21.3757 39.9308 21.3757 39.548C21.3757 39.1808 21.4577 38.8507 21.6218 38.5577C21.7858 38.2609 22.0143 38.0089 22.3073 37.8019C22.6042 37.5909 22.9518 37.4308 23.3503 37.3214C23.7487 37.2081 24.1843 37.1515 24.6569 37.1515C25.2819 37.1515 25.8327 37.2609 26.3093 37.4796C26.7897 37.6945 27.1647 38.0011 27.4343 38.3995C27.7077 38.7941 27.8444 39.2609 27.8444 39.7999H25.7995C25.7995 39.5851 25.7546 39.3956 25.6647 39.2316C25.5788 39.0675 25.4479 38.9386 25.2721 38.8448C25.0964 38.7511 24.8757 38.7042 24.61 38.7042C24.3522 38.7042 24.1354 38.7433 23.9596 38.8214C23.7839 38.8995 23.6511 39.005 23.5612 39.1378C23.4714 39.2667 23.4264 39.4093 23.4264 39.5656C23.4264 39.6945 23.4616 39.8116 23.5319 39.9171C23.6061 40.0187 23.7096 40.1144 23.8425 40.2042C23.9792 40.2941 24.1432 40.38 24.3346 40.462C24.53 40.5441 24.7487 40.6241 24.9909 40.7023C25.444 40.8468 25.8464 41.0089 26.1979 41.1886C26.5534 41.3644 26.8522 41.5656 27.0944 41.7921C27.3405 42.0148 27.5261 42.2687 27.6511 42.5538C27.78 42.839 27.8444 43.1613 27.8444 43.5206C27.8444 43.9034 27.7702 44.2433 27.6218 44.5402C27.4733 44.837 27.2604 45.089 26.9831 45.296C26.7057 45.4991 26.3737 45.6534 25.987 45.7589C25.6003 45.8644 25.1686 45.9171 24.6921 45.9171C24.2546 45.9171 23.8229 45.8624 23.3971 45.7531C22.9753 45.6398 22.5925 45.4679 22.2487 45.2374C21.905 45.0031 21.6296 44.7042 21.4225 44.3409C21.2194 43.9738 21.1178 43.5382 21.1178 43.0343H23.1803C23.1803 43.2843 23.2136 43.4952 23.28 43.6671C23.3464 43.839 23.444 43.9777 23.5729 44.0831C23.7018 44.1847 23.86 44.2589 24.0475 44.3058C24.235 44.3488 24.4499 44.3702 24.6921 44.3702C24.9538 44.3702 25.1647 44.3331 25.3249 44.2589C25.485 44.1808 25.6022 44.0792 25.6764 43.9542C25.7507 43.8253 25.7878 43.6847 25.7878 43.5323Z" fill="#FFFF54"/>
<path d="M36.2307 0H7.77685C6.93076 0 6.23535 0.696 6.23535 1.5428V31.3316H9.31834V3.0856H36.2307V13.7808H46.9169V54.9144H9.31834V49.1376H6.23535V56.4572C6.23535 57.304 6.93076 58 7.77685 58H48.4584C49.3045 58 49.9999 57.304 49.9999 56.4572V13.7808L36.2307 0Z" fill="#767600"/>
<path d="M42.8031 19.1866H13.4336V21.4602H42.8031V19.1866Z" fill="#767600"/>
<path d="M38.1554 23.6058H13.4336V25.8794H38.1554V23.6058Z" fill="#767600"/>
</svg>
