<svg width="40" height="46" viewBox="0 0 40 46" fill="none" xmlns="http://www.w3.org/2000/svg">
<path d="M30.1623 25.7509H0V38.0697H25.6189L30.1623 25.7509Z" fill="#FFFF54"/>
<path d="M8.48842 34.1927H10.1974C10.1746 34.6875 10.0412 35.1237 9.79701 35.5013C9.55287 35.8789 9.21433 36.1735 8.78139 36.3851C8.3517 36.5935 7.84389 36.6976 7.25795 36.6976C6.78269 36.6976 6.35789 36.6179 5.98354 36.4584C5.61244 36.2989 5.29669 36.0694 5.03627 35.7699C4.77911 35.4704 4.58217 35.1075 4.44545 34.681C4.31199 34.2546 4.24526 33.7745 4.24526 33.2406V32.8549C4.24526 32.321 4.31524 31.8409 4.45522 31.4144C4.59845 30.9847 4.80027 30.6202 5.06069 30.3207C5.32436 30.0179 5.64011 29.7868 6.00795 29.6273C6.37579 29.4678 6.78432 29.3881 7.23354 29.3881C7.85203 29.3881 8.37449 29.4987 8.80092 29.7201C9.22735 29.9414 9.55776 30.2458 9.79213 30.6332C10.0265 31.0173 10.1649 31.4551 10.2072 31.9467H8.49819C8.49167 31.6797 8.4461 31.4567 8.36147 31.2777C8.27683 31.0954 8.14337 30.9587 7.96108 30.8676C7.77878 30.7764 7.53627 30.7308 7.23354 30.7308C7.02195 30.7308 6.83803 30.7699 6.68178 30.848C6.52553 30.9261 6.39532 31.0498 6.29115 31.2191C6.18699 31.3884 6.10886 31.6081 6.05678 31.8783C6.00795 32.1452 5.98354 32.4675 5.98354 32.8451V33.2406C5.98354 33.6182 6.00632 33.9405 6.0519 34.2074C6.09747 34.4743 6.17071 34.6924 6.27162 34.8617C6.37253 35.031 6.50274 35.1563 6.66225 35.2377C6.82501 35.3158 7.02358 35.3549 7.25795 35.3549C7.51837 35.3549 7.73809 35.3142 7.91713 35.2328C8.09617 35.1482 8.23451 35.0212 8.33217 34.8519C8.42983 34.6794 8.48191 34.4597 8.48842 34.1927ZM14.6701 34.7103C14.6701 34.5997 14.6538 34.5004 14.6212 34.4125C14.5887 34.3213 14.5285 34.2367 14.4406 34.1586C14.3527 34.0804 14.2257 34.0023 14.0597 33.9242C13.8969 33.8428 13.6821 33.7582 13.4152 33.6703C13.1027 33.5661 12.8016 33.4489 12.5119 33.3187C12.2221 33.1853 11.9634 33.0306 11.7355 32.8549C11.5076 32.6758 11.327 32.4675 11.1935 32.2299C11.06 31.989 10.9933 31.709 10.9933 31.39C10.9933 31.084 11.0617 30.809 11.1984 30.5648C11.3351 30.3174 11.5255 30.1075 11.7697 29.9349C12.0171 29.7592 12.3068 29.6257 12.6388 29.5345C12.9708 29.4401 13.3338 29.3929 13.7277 29.3929C14.2485 29.3929 14.7075 29.4841 15.1046 29.6664C15.505 29.8454 15.8175 30.101 16.0421 30.433C16.27 30.7618 16.3839 31.1508 16.3839 31.6H14.6798C14.6798 31.4209 14.6424 31.2631 14.5675 31.1263C14.4959 30.9896 14.3869 30.8822 14.2404 30.8041C14.0939 30.726 13.91 30.6869 13.6886 30.6869C13.4738 30.6869 13.2931 30.7194 13.1466 30.7845C13.0001 30.8497 12.8895 30.9375 12.8146 31.0482C12.7397 31.1556 12.7023 31.2745 12.7023 31.4047C12.7023 31.5121 12.7316 31.6097 12.7902 31.6976C12.852 31.7823 12.9383 31.862 13.049 31.9369C13.1629 32.0118 13.2996 32.0834 13.4591 32.1517C13.6219 32.2201 13.8042 32.2868 14.006 32.3519C14.3836 32.4724 14.7189 32.6075 15.0119 32.7572C15.3081 32.9037 15.5571 33.0713 15.7589 33.2601C15.964 33.4457 16.1186 33.6573 16.2228 33.8949C16.3302 34.1325 16.3839 34.4011 16.3839 34.7006C16.3839 35.0196 16.3221 35.3028 16.1984 35.5502C16.0747 35.7976 15.8973 36.0075 15.6662 36.1801C15.435 36.3493 15.1583 36.4779 14.8361 36.5658C14.5138 36.6537 14.1541 36.6976 13.757 36.6976C13.3924 36.6976 13.0327 36.6521 12.6779 36.5609C12.3263 36.4665 12.0073 36.3233 11.7208 36.1312C11.4344 35.9359 11.2049 35.6869 11.0324 35.3842C10.8631 35.0782 10.7785 34.7152 10.7785 34.2953H12.4972C12.4972 34.5036 12.5249 34.6794 12.5802 34.8226C12.6356 34.9659 12.7169 35.0814 12.8244 35.1693C12.9318 35.2539 13.0636 35.3158 13.2199 35.3549C13.3761 35.3907 13.5552 35.4086 13.757 35.4086C13.9751 35.4086 14.1509 35.3776 14.2843 35.3158C14.4178 35.2507 14.5154 35.1661 14.5773 35.0619C14.6391 34.9545 14.6701 34.8373 14.6701 34.7103ZM20.9298 34.7103C20.9298 34.5997 20.9135 34.5004 20.881 34.4125C20.8484 34.3213 20.7882 34.2367 20.7003 34.1586C20.6124 34.0804 20.4855 34.0023 20.3195 33.9242C20.1567 33.8428 19.9419 33.7582 19.6749 33.6703C19.3624 33.5661 19.0613 33.4489 18.7716 33.3187C18.4819 33.1853 18.2231 33.0306 17.9953 32.8549C17.7674 32.6758 17.5867 32.4675 17.4533 32.2299C17.3198 31.989 17.2531 31.709 17.2531 31.39C17.2531 31.084 17.3214 30.809 17.4581 30.5648C17.5949 30.3174 17.7853 30.1075 18.0294 29.9349C18.2768 29.7592 18.5665 29.6257 18.8986 29.5345C19.2306 29.4401 19.5936 29.3929 19.9874 29.3929C20.5083 29.3929 20.9673 29.4841 21.3644 29.6664C21.7648 29.8454 22.0773 30.101 22.3019 30.433C22.5298 30.7618 22.6437 31.1508 22.6437 31.6H20.9396C20.9396 31.4209 20.9022 31.2631 20.8273 31.1263C20.7557 30.9896 20.6466 30.8822 20.5001 30.8041C20.3537 30.726 20.1697 30.6869 19.9484 30.6869C19.7335 30.6869 19.5529 30.7194 19.4064 30.7845C19.2599 30.8497 19.1492 30.9375 19.0744 31.0482C18.9995 31.1556 18.9621 31.2745 18.9621 31.4047C18.9621 31.5121 18.9913 31.6097 19.0499 31.6976C19.1118 31.7823 19.1981 31.862 19.3087 31.9369C19.4227 32.0118 19.5594 32.0834 19.7189 32.1517C19.8816 32.2201 20.0639 32.2868 20.2658 32.3519C20.6434 32.4724 20.9787 32.6075 21.2716 32.7572C21.5678 32.9037 21.8169 33.0713 22.0187 33.2601C22.2238 33.4457 22.3784 33.6573 22.4826 33.8949C22.59 34.1325 22.6437 34.4011 22.6437 34.7006C22.6437 35.0196 22.5818 35.3028 22.4581 35.5502C22.3344 35.7976 22.157 36.0075 21.9259 36.1801C21.6948 36.3493 21.4181 36.4779 21.0958 36.5658C20.7736 36.6537 20.4139 36.6976 20.0167 36.6976C19.6522 36.6976 19.2925 36.6521 18.9376 36.5609C18.5861 36.4665 18.2671 36.3233 17.9806 36.1312C17.6941 35.9359 17.4647 35.6869 17.2921 35.3842C17.1229 35.0782 17.0382 34.7152 17.0382 34.2953H18.757C18.757 34.5036 18.7846 34.6794 18.84 34.8226C18.8953 34.9659 18.9767 35.0814 19.0841 35.1693C19.1915 35.2539 19.3234 35.3158 19.4796 35.3549C19.6359 35.3907 19.8149 35.4086 20.0167 35.4086C20.2348 35.4086 20.4106 35.3776 20.5441 35.3158C20.6775 35.2507 20.7752 35.1661 20.8371 35.0619C20.8989 34.9545 20.9298 34.8373 20.9298 34.7103Z" fill="black"/>
<path d="M28.9846 0H6.22148C5.54461 0 4.98828 0.552 4.98828 1.2236V24.8492H7.45467V2.4472H28.9846V10.9296H37.5335V43.5528H7.45467V38.9712H4.98828V44.7764C4.98828 45.448 5.54461 46 6.22148 46H38.7667C39.4436 46 39.9999 45.448 39.9999 44.7764V10.9296L28.9846 0Z" fill="#FFFF54"/>
<path d="M34.2422 15.217H10.7466V17.0202H34.2422V15.217Z" fill="#FFFF54"/>
<path d="M30.5241 18.7219H10.7466V20.5251H30.5241V18.7219Z" fill="#FFFF54"/>
</svg>
