<svg width="50" height="58" viewBox="0 0 50 58" fill="none" xmlns="http://www.w3.org/2000/svg">
<path d="M37.7028 32.4685H0V48.0009H32.0236L37.7028 32.4685Z" fill="#767600"/>
<path d="M8.36084 39.0823V40.5325H4.34863V39.0823H8.36084ZM4.97705 35.9778V43.7982H3.0918V35.9778H4.97705ZM9.62842 35.9778V43.7982H7.74854V35.9778H9.62842ZM14.4517 35.9778V43.7982H12.5664V35.9778H14.4517ZM16.8042 35.9778V37.4334H10.2676V35.9778H16.8042ZM18.5391 35.9778H20.0752L21.8208 41.4188L23.5664 35.9778H25.1025L22.4438 43.7982H21.1978L18.5391 35.9778ZM17.6045 35.9778H19.1943L19.4897 41.972V43.7982H17.6045V35.9778ZM24.4473 35.9778H26.0425V43.7982H24.1519V41.972L24.4473 35.9778ZM32.418 42.348V43.7982H28.4648V42.348H32.418ZM29.1362 35.9778V43.7982H27.251V35.9778H29.1362Z" fill="#FFFF54"/>
<path d="M36.2307 0H7.77684C6.93076 0 6.23535 0.696 6.23535 1.5428V31.3316H9.31834V3.0856H36.2307V13.7808H46.9168V54.9144H9.31834V49.1376H6.23535V56.4572C6.23535 57.304 6.93076 58 7.77684 58H48.4583C49.3044 58 49.9998 57.304 49.9998 56.4572V13.7808L36.2307 0Z" fill="#767600"/>
<path d="M42.8031 19.1868H13.4336V21.4604H42.8031V19.1868Z" fill="#767600"/>
<path d="M38.1554 23.6057H13.4336V25.8793H38.1554V23.6057Z" fill="#767600"/>
</svg>
