<svg width="40" height="46" viewBox="0 0 40 46" fill="none" xmlns="http://www.w3.org/2000/svg">
<path d="M30.1622 25.7509H0V38.0697H25.6189L30.1622 25.7509Z" fill="#FFFF54"/>
<path d="M6.52158 31.947V33.1335H3.23886V31.947H6.52158ZM3.75302 29.4069V35.8054H2.21054V29.4069H3.75302ZM7.55869 29.4069V35.8054H6.0206V29.4069H7.55869ZM11.505 29.4069V35.8054H9.96249V29.4069H11.505ZM13.4298 29.4069V30.5978H8.08163V29.4069H13.4298ZM14.8492 29.4069H16.106L17.5343 33.8586L18.9625 29.4069H20.2193L18.044 35.8054H17.0245L14.8492 29.4069ZM14.0846 29.4069H15.3853L15.627 34.3112V35.8054H14.0846V29.4069ZM19.6832 29.4069H20.9884V35.8054H19.4415V34.3112L19.6832 29.4069ZM26.2047 34.6188V35.8054H22.9703V34.6188H26.2047ZM23.5196 29.4069V35.8054H21.9771V29.4069H23.5196Z" fill="black"/>
<path d="M28.9846 0H6.22148C5.54461 0 4.98828 0.552 4.98828 1.2236V24.8492H7.45467V2.4472H28.9846V10.9296H37.5335V43.5528H7.45467V38.9712H4.98828V44.7764C4.98828 45.448 5.54461 46 6.22148 46H38.7667C39.4435 46 39.9999 45.448 39.9999 44.7764V10.9296L28.9846 0Z" fill="#FFFF54"/>
<path d="M34.2422 15.217H10.7466V17.0202H34.2422V15.217Z" fill="#FFFF54"/>
<path d="M30.524 18.7217H10.7466V20.5249H30.524V18.7217Z" fill="#FFFF54"/>
</svg>
