<svg width="50" height="58" viewBox="0 0 50 58" fill="none" xmlns="http://www.w3.org/2000/svg">
<path d="M36.1625 0H7.56769C6.71741 0 6.01855 0.694734 6.01855 1.53999V31.2746H9.11681V3.07999H36.1625V13.7557H46.9016V54.8145H9.11681V31.2746H6.01855V56.3545C6.01855 57.1998 6.71741 57.8945 7.56769 57.8945H48.4507C49.301 57.8945 49.9999 57.1998 49.9999 56.3545V13.7557L36.1625 0Z" fill="#767600"/>
<path d="M33.1644 30.8304H0V46.3346H28.1688L33.1644 30.8304Z" fill="#767600"/>
<path d="M42.5271 19.1519H13.1577V21.4213H42.5271V19.1519Z" fill="#767600"/>
<path d="M37.8795 23.5628H13.1577V25.8323H37.8795V23.5628Z" fill="#767600"/>
<path d="M11.6945 41.48V35.6265H13.7453V41.48C13.7453 42.0504 13.6144 42.5445 13.3527 42.9625C13.0949 43.3804 12.7433 43.7047 12.298 43.9351C11.8566 44.1617 11.3605 44.275 10.8097 44.275C10.2394 44.275 9.73161 44.1793 9.2863 43.9879C8.84489 43.7964 8.49724 43.5015 8.24333 43.1031C7.99333 42.7047 7.86833 42.1968 7.86833 41.5797H9.93083C9.93083 41.8687 9.96403 42.0953 10.0304 42.2593C10.0968 42.4195 10.1945 42.5328 10.3234 42.5992C10.4562 42.6617 10.6183 42.6929 10.8097 42.6929C10.9972 42.6929 11.1554 42.6461 11.2843 42.5523C11.4172 42.4547 11.5187 42.316 11.589 42.1363C11.6593 41.9527 11.6945 41.7339 11.6945 41.48ZM19.4465 41.8902C19.4465 41.7574 19.4269 41.6382 19.3879 41.5328C19.3488 41.4234 19.2765 41.3218 19.1711 41.2281C19.0656 41.1343 18.9133 41.0406 18.714 40.9468C18.5187 40.8492 18.2609 40.7476 17.9406 40.6422C17.5656 40.5172 17.2043 40.3765 16.8566 40.2203C16.509 40.0601 16.1984 39.8746 15.925 39.6636C15.6515 39.4488 15.4347 39.1988 15.2746 38.9136C15.1144 38.6246 15.0343 38.2886 15.0343 37.9058C15.0343 37.5386 15.1164 37.2086 15.2804 36.9156C15.4445 36.6187 15.673 36.3668 15.966 36.1597C16.2629 35.9488 16.6105 35.7886 17.009 35.6793C17.4074 35.566 17.8429 35.5093 18.3156 35.5093C18.9406 35.5093 19.4914 35.6187 19.9679 35.8375C20.4484 36.0523 20.8234 36.3589 21.0929 36.7574C21.3664 37.1519 21.5031 37.6187 21.5031 38.1578H19.4582C19.4582 37.9429 19.4133 37.7535 19.3234 37.5894C19.2375 37.4254 19.1066 37.2964 18.9308 37.2027C18.755 37.1089 18.5343 37.0621 18.2687 37.0621C18.0109 37.0621 17.7941 37.1011 17.6183 37.1793C17.4425 37.2574 17.3097 37.3629 17.2199 37.4957C17.13 37.6246 17.0851 37.7672 17.0851 37.9234C17.0851 38.0523 17.1203 38.1695 17.1906 38.275C17.2648 38.3765 17.3683 38.4722 17.5011 38.5621C17.6379 38.6519 17.8019 38.7379 17.9933 38.8199C18.1886 38.9019 18.4074 38.982 18.6496 39.0601C19.1027 39.2047 19.505 39.3668 19.8566 39.5464C20.2121 39.7222 20.5109 39.9234 20.7531 40.15C20.9992 40.3726 21.1847 40.6265 21.3097 40.9117C21.4386 41.1968 21.5031 41.5191 21.5031 41.8785C21.5031 42.2613 21.4289 42.6011 21.2804 42.898C21.132 43.1949 20.9191 43.4468 20.6418 43.6539C20.3644 43.857 20.0324 44.0113 19.6457 44.1168C19.259 44.2222 18.8273 44.275 18.3508 44.275C17.9133 44.275 17.4816 44.2203 17.0558 44.1109C16.634 43.9976 16.2511 43.8257 15.9074 43.5953C15.5636 43.3609 15.2883 43.0621 15.0812 42.6988C14.8781 42.3316 14.7765 41.8961 14.7765 41.3922H16.839C16.839 41.6422 16.8722 41.8531 16.9386 42.025C17.005 42.1968 17.1027 42.3355 17.2316 42.441C17.3605 42.5425 17.5187 42.6168 17.7062 42.6636C17.8937 42.7066 18.1086 42.7281 18.3508 42.7281C18.6125 42.7281 18.8234 42.691 18.9836 42.6168C19.1437 42.5386 19.2609 42.4371 19.3351 42.3121C19.4093 42.1832 19.4465 42.0425 19.4465 41.8902Z" fill="#FFFF54"/>
</svg>
