<svg width="40" height="46" viewBox="0 0 40 46" fill="none" xmlns="http://www.w3.org/2000/svg">
<path d="M28.9301 0H6.05425C5.37403 0 4.81494 0.552 4.81494 1.2236V24.8492H7.29355V2.4472H28.9301V10.9296H37.5214V43.5528H7.29355V24.8492H4.81494V44.7764C4.81494 45.448 5.37403 46 6.05425 46H38.7607C39.4409 46 40 45.448 40 44.7764V10.9296L28.9301 0Z" fill="#FFFF54"/>
<path d="M26.5315 24.4962H0V36.815H22.5351L26.5315 24.4962Z" fill="#FFFF54"/>
<path d="M34.0219 15.2171H10.5264V17.0203H34.0219V15.2171Z" fill="#FFFF54"/>
<path d="M30.3038 18.7219H10.5264V20.5251H30.3038V18.7219Z" fill="#FFFF54"/>
<path d="M9.25287 33.1139V28.236H10.9619V33.1139C10.9619 33.5892 10.8528 34.0009 10.6347 34.3492C10.4199 34.6976 10.1269 34.9677 9.7558 35.1598C9.38796 35.3486 8.97455 35.443 8.51556 35.443C8.0403 35.443 7.61712 35.3632 7.24603 35.2037C6.87819 35.0442 6.58848 34.7985 6.37689 34.4664C6.16856 34.1344 6.06439 33.7112 6.06439 33.1969H7.78314C7.78314 33.4378 7.81081 33.6266 7.86615 33.7633C7.92149 33.8968 8.00287 33.9912 8.11029 34.0465C8.22097 34.0986 8.35606 34.1246 8.51556 34.1246C8.67181 34.1246 8.80365 34.0856 8.91107 34.0074C9.02175 33.9261 9.10638 33.8105 9.16498 33.6608C9.22357 33.5078 9.25287 33.3255 9.25287 33.1139ZM15.7128 33.4557C15.7128 33.345 15.6966 33.2457 15.664 33.1578C15.6314 33.0667 15.5712 32.9821 15.4833 32.9039C15.3954 32.8258 15.2685 32.7477 15.1025 32.6696C14.9397 32.5882 14.7249 32.5035 14.4579 32.4156C14.1454 32.3115 13.8443 32.1943 13.5546 32.0641C13.2649 31.9306 13.0061 31.776 12.7783 31.6002C12.5504 31.4212 12.3697 31.2128 12.2363 30.9752C12.1028 30.7343 12.0361 30.4544 12.0361 30.1354C12.0361 29.8294 12.1044 29.5543 12.2411 29.3102C12.3779 29.0628 12.5683 28.8528 12.8124 28.6803C13.0598 28.5045 13.3495 28.3711 13.6816 28.2799C14.0136 28.1855 14.3766 28.1383 14.7704 28.1383C15.2913 28.1383 15.7503 28.2295 16.1474 28.4117C16.5478 28.5908 16.8603 28.8463 17.0849 29.1783C17.3128 29.5071 17.4267 29.8961 17.4267 30.3453H15.7226C15.7226 30.1663 15.6852 30.0084 15.6103 29.8717C15.5387 29.735 15.4296 29.6276 15.2831 29.5494C15.1367 29.4713 14.9527 29.4323 14.7314 29.4323C14.5165 29.4323 14.3359 29.4648 14.1894 29.5299C14.0429 29.595 13.9322 29.6829 13.8574 29.7936C13.7825 29.901 13.7451 30.0198 13.7451 30.15C13.7451 30.2574 13.7744 30.3551 13.8329 30.443C13.8948 30.5276 13.9811 30.6074 14.0917 30.6823C14.2057 30.7571 14.3424 30.8287 14.5019 30.8971C14.6647 30.9655 14.8469 31.0322 15.0488 31.0973C15.4264 31.2177 15.7617 31.3528 16.0546 31.5026C16.3508 31.649 16.5999 31.8167 16.8017 32.0055C17.0068 32.191 17.1614 32.4026 17.2656 32.6403C17.373 32.8779 17.4267 33.1464 17.4267 33.4459C17.4267 33.7649 17.3648 34.0481 17.2411 34.2955C17.1175 34.5429 16.94 34.7529 16.7089 34.9254C16.4778 35.0947 16.2011 35.2233 15.8788 35.3112C15.5566 35.399 15.1969 35.443 14.7997 35.443C14.4352 35.443 14.0755 35.3974 13.7206 35.3063C13.3691 35.2119 13.0501 35.0686 12.7636 34.8766C12.4772 34.6813 12.2477 34.4323 12.0751 34.1295C11.9059 33.8235 11.8212 33.4606 11.8212 33.0406H13.54C13.54 33.249 13.5676 33.4248 13.623 33.568C13.6783 33.7112 13.7597 33.8268 13.8671 33.9147C13.9745 33.9993 14.1064 34.0612 14.2626 34.1002C14.4189 34.136 14.5979 34.1539 14.7997 34.1539C15.0178 34.1539 15.1936 34.123 15.3271 34.0612C15.4605 33.9961 15.5582 33.9114 15.6201 33.8073C15.6819 33.6998 15.7128 33.5826 15.7128 33.4557Z" fill="black"/>
</svg>
