<svg width="50" height="65" viewBox="0 0 50 65" fill="none" xmlns="http://www.w3.org/2000/svg">
<path d="M43.5944 22.2686C46.0946 20.8918 48.0225 18.8262 49.0855 16.3852C50.1486 13.9441 50.2888 11.2608 49.4849 8.74238C48.6811 6.22393 46.977 4.00774 44.6312 2.43002C42.2854 0.852306 39.4259 -0.000844938 36.4865 6.27931e-07H13.5135C10.5741 -0.000844938 7.7146 0.852306 5.36879 2.43002C3.02298 4.00774 1.31888 6.22393 0.515012 8.74238C-0.288858 11.2608 -0.148629 13.9441 0.914423 16.3852C1.97748 18.8262 3.90534 20.8918 6.40555 22.2686C4.44721 23.3462 2.8307 24.8519 1.70958 26.6426C0.588463 28.4334 -3.31729e-05 30.4498 1.40248e-09 32.5002C3.31757e-05 34.5505 0.588594 36.5669 1.70977 38.3576C2.83095 40.1484 4.44751 41.654 6.40588 42.7316C4.404 43.8352 2.76059 45.3855 1.6385 47.229C0.516414 49.0726 -0.0454081 51.1453 0.00870549 53.2418C0.0628191 55.3383 0.730991 57.3858 1.94701 59.1814C3.16304 60.9771 4.8847 62.4585 6.94141 63.479C8.99811 64.4994 11.3185 65.0235 13.6726 64.9992C16.0266 64.9749 18.3328 64.4031 20.3624 63.3405C22.392 62.2779 24.0747 60.7613 25.2437 58.941C26.4127 57.1208 27.0274 55.06 27.027 52.963V41.0853C28.3827 42.2718 30.0043 43.19 31.7857 43.78C33.5671 44.37 35.4682 44.6184 37.3648 44.5092C39.2614 44.3999 41.1107 43.9354 42.7919 43.1459C44.4731 42.3564 45.9484 41.2598 47.1213 39.9277C48.2941 38.5956 49.1382 37.058 49.5983 35.4154C50.0583 33.7729 50.1241 32.0623 49.7912 30.3956C49.4583 28.7288 48.7343 27.1434 47.6665 25.743C46.5987 24.3426 45.2111 23.1586 43.5944 22.2686V22.2686ZM45.9459 12.0371C45.9431 14.2701 44.9465 16.4109 43.1745 17.9903C41.4025 19.5698 38.9998 20.459 36.4931 20.463L36.4865 20.4628L36.4734 20.4632L27.027 20.4628V3.61114H36.4865C38.9944 3.61365 41.3988 4.50219 43.1722 6.08183C44.9456 7.66147 45.9431 9.8032 45.9459 12.0371V12.0371ZM4.05405 12.0371C4.05686 9.8032 5.05438 7.66147 6.82777 6.08183C8.60115 4.50219 11.0056 3.61365 13.5135 3.61114H22.973V20.4628H13.5135L13.5071 20.463C11.0003 20.459 8.59753 19.5698 6.82554 17.9904C5.05355 16.4109 4.05689 14.2701 4.05405 12.0371V12.0371ZM4.05405 32.5C4.05688 30.2671 5.05353 28.1262 6.82553 26.5468C8.59752 24.9673 11.0003 24.0781 13.5071 24.0741L13.5135 24.0743L22.973 24.0741V40.9257L13.5135 40.926C11.0056 40.9235 8.60115 40.035 6.82777 38.4553C5.05438 36.8757 4.05686 34.7339 4.05405 32.5V32.5ZM13.5135 61.3888C12.2706 61.3898 11.0397 61.1725 9.89114 60.7495C8.74256 60.3265 7.69883 59.706 6.81961 58.9235C5.94039 58.141 5.24291 57.2118 4.76703 56.1891C4.29116 55.1663 4.04622 54.0701 4.04622 52.963C4.04622 51.8559 4.29116 50.7597 4.76703 49.7369C5.24291 48.7142 5.94039 47.785 6.81961 47.0025C7.69883 46.22 8.74256 45.5995 9.89114 45.1765C11.0397 44.7535 12.2706 44.5362 13.5135 44.5371L22.973 44.5369V52.963C22.9701 55.1969 21.9726 57.3386 20.1992 58.9182C18.4258 60.4978 16.0214 61.3864 13.5135 61.3888V61.3888ZM36.4865 40.926C33.9793 40.9254 31.575 40.0381 29.8018 38.4593C28.0286 36.8805 27.0316 34.7392 27.0299 32.5059C27.0282 30.2727 28.0218 28.1302 29.7926 26.5492C31.5633 24.9682 33.9663 24.078 36.4734 24.0743H36.4865L36.4929 24.0741C39 24.0771 41.4034 24.9665 43.1747 26.547C44.9461 28.1274 45.9406 30.2697 45.9398 32.5029C45.9389 34.7362 44.9428 36.8778 43.1702 38.4572C41.3976 40.0366 38.9936 40.9246 36.4865 40.926V40.926Z" fill="#767600"/>
</svg>
