<svg width="40" height="52" viewBox="0 0 40 52" fill="none" xmlns="http://www.w3.org/2000/svg">
<path d="M34.8755 17.8149C36.8757 16.7134 38.418 15.061 39.2684 13.1081C40.1189 11.1553 40.231 9.00867 39.588 6.99391C38.9449 4.97915 37.5816 3.20619 35.7049 1.94402C33.8283 0.681844 31.5407 -0.000675951 29.1892 5.02344e-07H10.8108C8.45928 -0.000675951 6.17168 0.681844 4.29503 1.94402C2.41838 3.20619 1.05511 4.97915 0.41201 6.99391C-0.231086 9.00867 -0.118904 11.1553 0.731539 13.1081C1.58198 15.061 3.12427 16.7134 5.12444 17.8149C3.55777 18.6769 2.26456 19.8815 1.36767 21.3141C0.47077 22.7467 -2.65383e-05 24.3598 1.12199e-09 26.0001C2.65406e-05 27.6404 0.470876 29.2535 1.36782 30.6861C2.26476 32.1187 3.55801 33.3232 5.12471 34.1853C3.5232 35.0681 2.20847 36.3084 1.3108 37.7832C0.413131 39.2581 -0.0363265 40.9162 0.00696439 42.5934C0.0502552 44.2706 0.584793 45.9086 1.55761 47.3451C2.53043 48.7817 3.90776 49.9668 5.55312 50.7832C7.19849 51.5995 9.05477 52.0188 10.938 51.9994C12.8213 51.9799 14.6662 51.5225 16.2899 50.6724C17.9136 49.8223 19.2597 48.609 20.1949 47.1528C21.1301 45.6966 21.6219 44.048 21.6216 42.3704V32.8683C22.7062 33.8174 24.0034 34.552 25.4285 35.024C26.8537 35.496 28.3746 35.6947 29.8918 35.6073C31.4091 35.5199 32.8886 35.1483 34.2335 34.5167C35.5785 33.8851 36.7587 33.0078 37.697 31.9421C38.6353 30.8764 39.3105 29.6464 39.6786 28.3323C40.0467 27.0183 40.0993 25.6499 39.833 24.3165C39.5667 22.9831 38.9874 21.7148 38.1332 20.5944C37.2789 19.4741 36.1689 18.5269 34.8755 17.8149V17.8149ZM36.7567 9.62972C36.7545 11.416 35.9572 13.1287 34.5396 14.3923C33.122 15.6558 31.1999 16.3672 29.1944 16.3704L29.1892 16.3703L29.1787 16.3705L21.6216 16.3703V2.88892H29.1892C31.1955 2.89092 33.119 3.60175 34.5377 4.86546C35.9565 6.12918 36.7545 7.84256 36.7567 9.62972V9.62972ZM3.24324 9.62972C3.24549 7.84256 4.04351 6.12918 5.46221 4.86546C6.88092 3.60175 8.80445 2.89092 10.8108 2.88892H18.3784V16.3703H10.8108L10.8057 16.3704C8.80023 16.3672 6.87803 15.6558 5.46043 14.3923C4.04284 13.1287 3.24551 11.4161 3.24324 9.62972V9.62972ZM3.24324 26C3.24551 24.2136 4.04283 22.501 5.46042 21.2374C6.87802 19.9739 8.80022 19.2625 10.8057 19.2593L10.8108 19.2594L18.3784 19.2593V32.7406L10.8108 32.7408C8.80445 32.7388 6.88092 32.028 5.46221 30.7642C4.04351 29.5005 3.24549 27.7872 3.24324 26V26ZM10.8108 49.1111C9.81649 49.1118 8.83177 48.938 7.91291 48.5996C6.99405 48.2612 6.15906 47.7648 5.45569 47.1388C4.75231 46.5128 4.19432 45.7694 3.81363 44.9513C3.43293 44.1331 3.23698 43.2561 3.23698 42.3704C3.23698 41.4847 3.43293 40.6077 3.81363 39.7895C4.19432 38.9713 4.75231 38.228 5.45569 37.602C6.15906 36.976 6.99405 36.4796 7.91291 36.1412C8.83177 35.8028 9.81649 35.629 10.8108 35.6297L18.3784 35.6295V42.3704C18.3761 44.1575 17.5781 45.8709 16.1593 47.1346C14.7406 48.3983 12.8171 49.1091 10.8108 49.1111V49.1111ZM29.1892 32.7408C27.1834 32.7403 25.26 32.0305 23.8414 30.7675C22.4229 29.5044 21.6253 27.7914 21.6239 26.0048C21.6225 24.2182 22.4175 22.5041 23.8341 21.2393C25.2507 19.9745 27.173 19.2624 29.1787 19.2594H29.1892L29.1943 19.2593C31.2 19.2617 33.1227 19.9732 34.5398 21.2376C35.9569 22.502 36.7525 24.2157 36.7518 26.0023C36.7511 27.789 35.9542 29.5022 34.5362 30.7658C33.1181 32.0293 31.1949 32.7397 29.1892 32.7408V32.7408Z" fill="#FFFF54"/>
</svg>
